<svg width="25" height="18" viewBox="0 0 25 18" fill="none" xmlns="http://www.w3.org/2000/svg">
<path d="M1.5 0.5C0.677734 0.5 0 1.17773 0 2V14C0 14.8223 0.677734 15.5 1.5 15.5H3.54688C3.78516 16.918 5.01758 18 6.5 18C7.98242 18 9.21484 16.918 9.45312 15.5H14.0938C14.457 15.5 14.7793 15.3418 15.0312 15.1094C15.2891 15.3398 15.6191 15.5 16 15.5H16.5469C16.7852 16.918 18.0176 18 19.5 18C21.1504 18 22.5 16.6504 22.5 15C22.5 13.3496 21.1504 12 19.5 12C18.0176 12 16.7852 13.082 16.5469 14.5H16C15.916 14.5 15.7812 14.4375 15.6719 14.3281C15.5625 14.2187 15.5 14.084 15.5 14V4.5C15.5 4.41602 15.5625 4.28125 15.6719 4.17187C15.7812 4.0625 15.916 4 16 4H20C20.4121 4 20.9863 4.46289 21.3438 4.90625L21.4062 5H19C18.1992 5 17.5 5.64648 17.5 6.5V8.5C17.5 8.91601 17.6875 9.28125 17.9531 9.54687C18.2188 9.8125 18.584 10 19 10H24V14C24 14.084 23.9375 14.2187 23.8281 14.3281C23.7188 14.4375 23.584 14.5 23.5 14.5H22.5V15.5H23.5C23.916 15.5 24.2812 15.3125 24.5469 15.0469C24.8125 14.7812 25 14.416 25 14V9.20312C25 8.64062 24.7852 8.125 24.5938 7.73437C24.4023 7.34375 24.2031 7.0625 24.2031 7.0625V7.04687L22.1562 4.29687H22.1406V4.28125C21.6973 3.72656 20.9863 3 20 3H16C15.8203 3 15.6562 3.0332 15.5 3.09375V2C15.5 1.17773 14.8223 0.5 14 0.5H1.5ZM1.5 1.5H14C14.2773 1.5 14.5 1.72266 14.5 2V14.0937C14.5 14.3262 14.3262 14.5 14.0938 14.5H9.45312C9.21484 13.082 7.98242 12 6.5 12C5.01758 12 3.78516 13.082 3.54688 14.5H1.5C1.22266 14.5 1 14.2773 1 14V2C1 1.72266 1.22266 1.5 1.5 1.5ZM19 6H22.1562L23.3906 7.64062L23.4062 7.65625C23.416 7.66992 23.5508 7.86133 23.7031 8.17187C23.8301 8.42969 23.8965 8.73633 23.9375 9H19C18.916 9 18.7812 8.9375 18.6719 8.82812C18.5625 8.71875 18.5 8.58398 18.5 8.5V6.5C18.5 6.25391 18.8008 6 19 6ZM2.5 6.5V9.40625H3.15625V8.20312H4.34375V7.70312H3.15625V7.04687H4.5V6.5H2.5ZM5 6.5V9.29687H5.54688V8.20312H6.20312C6.65234 8.20312 6.65234 8.55078 6.70312 9C6.70312 9.09961 6.69922 9.19726 6.75 9.29687H7.40625C7.30664 9.19726 7.29688 8.84766 7.29688 8.79687C7.29688 8.09766 7.00586 8 6.90625 8C7.05664 7.94922 7.34375 7.74609 7.34375 7.29687C7.34375 6.64648 6.75 6.5 6.5 6.5H5ZM8 6.5V9.40625H10.1562V8.84375H8.59375V8.15625H10V7.65625H8.59375V7.04687H10.0938V6.5H8ZM10.8438 6.5V9.40625H13V8.84375H11.4531V8.15625H12.8438V7.65625H11.4531V7.04687H12.9531V6.5H10.8438ZM5.59375 7H6.29688C6.44727 7 6.75 7.05664 6.75 7.40625C6.75 7.80664 6.44727 7.79687 6.29688 7.79687H5.59375V7ZM6.5 13C7.61133 13 8.5 13.8887 8.5 15C8.5 16.1113 7.61133 17 6.5 17C5.38867 17 4.5 16.1113 4.5 15C4.5 13.8887 5.38867 13 6.5 13ZM19.5 13C20.6113 13 21.5 13.8887 21.5 15C21.5 16.1113 20.6113 17 19.5 17C18.3887 17 17.5 16.1113 17.5 15C17.5 13.8887 18.3887 13 19.5 13Z" fill="white"/>
</svg>
