<svg width="88" height="75" viewBox="0 0 88 75" fill="none" xmlns="http://www.w3.org/2000/svg">
<g id="Free Shipping" clip-path="url(#clip0_58_708)">
<path id="Vector" d="M5.42856 12C2.5453 12 0.168823 14.0332 0.168823 16.5V52.5C0.168823 54.9668 2.5453 57 5.42856 57H12.6059C13.4415 61.2539 17.7629 64.5 22.961 64.5C28.1591 64.5 32.4806 61.2539 33.3161 57H49.5885C50.8623 57 51.9923 56.5254 52.8758 55.8281C53.7798 56.5195 54.9372 57 56.2727 57H58.1903C59.0259 61.2539 63.3473 64.5 68.5454 64.5C74.3325 64.5 79.0649 60.4512 79.0649 55.5C79.0649 50.5488 74.3325 46.5 68.5454 46.5C63.3473 46.5 59.0259 49.7461 58.1903 54H56.2727C55.9782 54 55.5057 53.8125 55.1222 53.4844C54.7386 53.1562 54.5195 52.752 54.5195 52.5V24C54.5195 23.748 54.7386 23.3438 55.1222 23.0156C55.5057 22.6875 55.9782 22.5 56.2727 22.5H70.2987C71.7438 22.5 73.7572 23.8887 75.0105 25.2188L75.2297 25.5H66.7922C63.9843 25.5 61.5325 27.4395 61.5325 30V36C61.5325 37.248 62.1899 38.3438 63.1213 39.1406C64.0528 39.9375 65.3334 40.5 66.7922 40.5H84.3247V52.5C84.3247 52.752 84.1055 53.1562 83.722 53.4844C83.3385 53.8125 82.8659 54 82.5714 54H79.0649V57H82.5714C84.0302 57 85.3109 56.4375 86.2423 55.6406C87.1737 54.8438 87.8312 53.748 87.8312 52.5V38.1094C87.8312 36.4219 87.0778 34.875 86.4066 33.7031C85.7355 32.5312 85.0369 31.6875 85.0369 31.6875V31.6406L77.8596 23.3906H77.8048V23.3438C76.2501 21.6797 73.7572 19.5 70.2987 19.5H56.2727C55.6426 19.5 55.0674 19.5996 54.5195 19.7812V16.5C54.5195 14.0332 52.143 12 49.2597 12H5.42856ZM5.42856 15H49.2597C50.2322 15 51.013 15.668 51.013 16.5V52.7812C51.013 53.4785 50.4035 54 49.5885 54H33.3161C32.4806 49.7461 28.1591 46.5 22.961 46.5C17.7629 46.5 13.4415 49.7461 12.6059 54H5.42856C4.45606 54 3.67532 53.332 3.67532 52.5V16.5C3.67532 15.668 4.45606 15 5.42856 15ZM66.7922 28.5H77.8596L82.1879 33.4219L82.2427 33.4688C82.2769 33.5098 82.7495 34.084 83.2837 35.0156C83.7288 35.7891 83.9617 36.709 84.1055 37.5H66.7922C66.4977 37.5 66.0252 37.3125 65.6416 36.9844C65.2581 36.6562 65.039 36.252 65.039 36V30C65.039 29.2617 66.0936 28.5 66.7922 28.5ZM8.93506 30V38.7188H11.2362V35.1094H15.4002V33.6094H11.2362V31.6406H15.948V30H8.93506ZM17.7013 30V38.3906H19.6189V35.1094H21.92C23.4952 35.1094 23.4952 36.1523 23.6733 37.5C23.6733 37.7988 23.6596 38.0918 23.8377 38.3906H26.1388C25.7895 38.0918 25.7553 37.043 25.7553 36.8906C25.7553 34.793 24.7348 34.5 24.3855 34.5C24.9129 34.3477 25.9196 33.7383 25.9196 32.3906C25.9196 30.4395 23.8377 30 22.961 30H17.7013ZM28.2208 30V38.7188H35.7816V37.0312H30.3028V34.9688H35.2338V33.4688H30.3028V31.6406H35.5625V30H28.2208ZM38.1924 30V38.7188H45.7532V37.0312H40.3291V34.9688H45.2053V33.4688H40.3291V31.6406H45.5889V30H38.1924ZM19.7833 31.5H22.2488C22.7761 31.5 23.8377 31.6699 23.8377 32.7188C23.8377 33.9199 22.7761 33.8906 22.2488 33.8906H19.7833V31.5ZM22.961 49.5C26.8579 49.5 29.974 52.166 29.974 55.5C29.974 58.834 26.8579 61.5 22.961 61.5C19.0642 61.5 15.948 58.834 15.948 55.5C15.948 52.166 19.0642 49.5 22.961 49.5ZM68.5454 49.5C72.4423 49.5 75.5584 52.166 75.5584 55.5C75.5584 58.834 72.4423 61.5 68.5454 61.5C64.6486 61.5 61.5325 58.834 61.5325 55.5C61.5325 52.166 64.6486 49.5 68.5454 49.5Z" fill="#E87B16"/>
</g>
<defs>
<clipPath id="clip0_58_708">
<rect width="87.6623" height="75" fill="white" transform="translate(0.168823)"/>
</clipPath>
</defs>
</svg>
