<svg width="674" height="90" viewBox="0 0 674 90" fill="none" xmlns="http://www.w3.org/2000/svg">
<mask id="path-1-outside-1_30_33" maskUnits="userSpaceOnUse" x="-10.5" y="-11.8445" width="696" height="114" fill="black">
<rect fill="white" x="-10.5" y="-11.8445" width="696" height="114"/>
<path d="M20.2583 8.05551C26.0183 8.05551 30.6083 9.70551 34.0283 13.0055C37.4483 16.2455 39.1583 20.7155 39.1583 26.4155C39.1583 32.1155 36.9983 37.0055 32.6783 41.0855C28.3583 45.1055 23.0783 47.1155 16.8383 47.1155H11.7083L12.7883 70.1555H0.728321L1.80832 48.2855L0.728321 8.05551H20.2583ZM17.0183 17.1455H12.6083L11.9783 38.3855H18.0983C21.0983 38.3855 23.4083 37.3955 25.0283 35.4155C26.7083 33.4355 27.5483 30.6155 27.5483 26.9555C27.5483 20.4155 24.0383 17.1455 17.0183 17.1455ZM56.8693 0.495513L55.6993 46.7555L56.6893 67.9055L44.5393 70.1555L45.6193 48.2855L44.5393 2.74552L56.8693 0.495513ZM76.303 70.1555C72.763 70.1555 69.853 69.0455 67.573 66.8255C65.353 64.5455 64.243 61.5155 64.243 57.7355C64.243 53.8955 65.983 50.5955 69.463 47.8355C72.943 45.0155 77.173 43.6055 82.153 43.6055H88.273V42.0755C88.273 39.1355 87.673 37.1255 86.473 36.0455C85.273 34.9655 83.023 34.4255 79.723 34.4255C78.343 34.4255 76.693 34.7255 74.773 35.3255C72.913 35.8655 70.813 36.7355 68.473 37.9355L65.863 30.8255C68.443 29.0255 71.563 27.4055 75.223 25.9655C78.943 24.5255 82.003 23.8055 84.403 23.8055C93.823 23.8055 98.533 28.3655 98.533 37.4855V55.1255C98.533 58.4855 99.583 62.2355 101.683 66.3755L92.143 70.4255C90.643 67.5455 89.533 64.9655 88.813 62.6855C85.513 67.6655 81.343 70.1555 76.303 70.1555ZM80.083 60.9755C82.483 60.9755 85.213 59.7455 88.273 57.2855V51.2555C85.093 50.5355 82.513 50.1755 80.533 50.1755C76.753 50.1755 74.863 51.8555 74.863 55.2155C74.863 56.9555 75.343 58.3655 76.303 59.4455C77.263 60.4655 78.523 60.9755 80.083 60.9755ZM110.751 87.5255L120.021 66.7355L113.361 48.5555L104.271 26.6855L116.241 24.4355L122.001 43.6055L124.971 52.6955H126.141L128.301 46.1255L134.781 24.3455L145.851 25.6955L129.921 67.5455L122.361 89.9555L110.751 87.5255ZM160.956 64.1255C160.956 69.2255 157.236 74.6255 149.796 80.3255L146.106 77.6255C149.646 73.4855 151.416 69.9155 151.416 66.9155C151.416 65.0555 150.636 62.6855 149.076 59.8055L157.896 56.2955C159.936 58.8755 160.956 61.4855 160.956 64.1255ZM196 0.495513L194.83 46.7555L195.82 67.9055L183.67 70.1555L184.75 48.2855L183.67 2.74552L196 0.495513ZM222.634 60.9755C224.374 60.9755 226.204 60.5255 228.124 59.6255C230.044 58.7255 231.544 57.8255 232.624 56.9255L234.244 55.5755L238.384 60.6155C237.784 61.6355 236.854 62.8055 235.594 64.1255C234.334 65.4455 233.044 66.5855 231.724 67.5455C230.464 68.4455 228.754 69.2855 226.594 70.0655C224.494 70.7855 222.304 71.1455 220.024 71.1455C215.164 71.1455 211.204 69.3155 208.144 65.6555C205.084 61.9355 203.554 57.1655 203.554 51.3455C203.554 44.0255 205.684 37.6055 209.944 32.0855C214.204 26.5655 219.184 23.8055 224.884 23.8055C229.264 23.8055 232.654 25.0355 235.054 27.4955C237.514 29.9555 238.744 33.4055 238.744 37.8455C238.744 40.4855 238.294 43.4855 237.394 46.8455L235.594 48.7355L213.094 50.8055C214.114 57.5855 217.294 60.9755 222.634 60.9755ZM222.634 33.0755C219.994 33.0755 217.774 34.1555 215.974 36.3155C214.174 38.4155 213.124 41.1155 212.824 44.4155L228.124 42.5255C228.304 41.1455 228.394 40.0055 228.394 39.1055C228.394 35.0855 226.474 33.0755 222.634 33.0755ZM255.6 70.1555C252.06 70.1555 249.15 69.0455 246.87 66.8255C244.65 64.5455 243.54 61.5155 243.54 57.7355C243.54 53.8955 245.28 50.5955 248.76 47.8355C252.24 45.0155 256.47 43.6055 261.45 43.6055H267.57V42.0755C267.57 39.1355 266.97 37.1255 265.77 36.0455C264.57 34.9655 262.32 34.4255 259.02 34.4255C257.64 34.4255 255.99 34.7255 254.07 35.3255C252.21 35.8655 250.11 36.7355 247.77 37.9355L245.16 30.8255C247.74 29.0255 250.86 27.4055 254.52 25.9655C258.24 24.5255 261.3 23.8055 263.7 23.8055C273.12 23.8055 277.83 28.3655 277.83 37.4855V55.1255C277.83 58.4855 278.88 62.2355 280.98 66.3755L271.44 70.4255C269.94 67.5455 268.83 64.9655 268.11 62.6855C264.81 67.6655 260.64 70.1555 255.6 70.1555ZM259.38 60.9755C261.78 60.9755 264.51 59.7455 267.57 57.2855V51.2555C264.39 50.5355 261.81 50.1755 259.83 50.1755C256.05 50.1755 254.16 51.8555 254.16 55.2155C254.16 56.9555 254.64 58.3655 255.6 59.4455C256.56 60.4655 257.82 60.9755 259.38 60.9755ZM287.797 26.6855L298.687 24.3455C299.227 28.9655 299.587 33.3455 299.767 37.4855C305.227 29.0255 310.357 24.7955 315.157 24.7955L314.167 38.8355C310.687 38.8355 307.927 39.1655 305.887 39.8255C303.907 40.4255 301.867 41.6555 299.767 43.5155V46.7555L300.757 67.9055L288.697 70.1555L289.777 48.2855C289.537 40.2455 288.877 33.0455 287.797 26.6855ZM346.967 47.3855C346.967 43.2455 346.607 40.4855 345.887 39.1055C345.167 37.7255 343.487 37.0355 340.847 37.0355C338.207 37.0355 335.207 38.0855 331.847 40.1855V46.7555L332.837 67.9055L320.777 70.1555L321.857 48.2855C321.617 40.2455 320.957 33.0455 319.877 26.6855L330.767 24.3455C331.187 27.8255 331.487 31.2155 331.667 34.5155C332.567 33.3155 333.587 32.1455 334.727 31.0055C335.867 29.8055 337.667 28.4855 340.127 27.0455C342.587 25.5455 345.167 24.7955 347.867 24.7955C350.627 24.7955 352.937 25.8755 354.797 28.0355C356.657 30.1355 357.587 33.0155 357.587 36.6755L357.047 46.7555L358.037 68.3555L345.887 70.6055L346.967 47.3855ZM377.607 64.1255C377.607 69.2255 373.887 74.6255 366.447 80.3255L362.757 77.6255C366.297 73.4855 368.067 69.9155 368.067 66.9155C368.067 65.0555 367.287 62.6855 365.727 59.8055L374.547 56.2955C376.587 58.8755 377.607 61.4855 377.607 64.1255ZM437.131 40.8155C437.911 45.6755 438.301 48.9755 438.301 50.7155C438.301 52.3955 438.211 53.6855 438.031 54.5855L448.201 64.5755L440.821 71.1455C438.781 68.9255 436.381 66.3755 433.621 63.4955C431.641 65.8355 429.241 67.6955 426.421 69.0755C423.601 70.4555 420.661 71.1455 417.601 71.1455C412.141 71.1455 407.611 69.6755 404.011 66.7355C400.411 63.7355 398.611 59.9855 398.611 55.4855C398.611 49.4255 402.151 44.3255 409.231 40.1855C404.431 35.2055 402.031 30.7055 402.031 26.6855C402.031 22.6055 403.831 19.0955 407.431 16.1555C411.031 13.1555 415.381 11.6555 420.481 11.6555C423.601 11.6555 426.481 11.9855 429.121 12.6455C431.821 13.3055 433.741 13.9355 434.881 14.5355L436.501 15.5255L430.921 26.1455C429.361 24.8255 427.411 23.6555 425.071 22.6355C422.791 21.5555 420.601 21.0155 418.501 21.0155C416.461 21.0155 414.841 21.4955 413.641 22.4555C412.501 23.4155 411.931 24.6455 411.931 26.1455C411.931 28.2455 412.651 30.1655 414.091 31.9055C415.531 33.6455 418.981 36.9155 424.441 41.7155L430.651 47.4755C430.351 44.3555 429.571 39.7955 428.311 33.7955L429.481 32.6255H448.381L447.661 40.8155H437.131ZM413.281 44.1455C410.461 46.8455 409.051 49.5755 409.051 52.3355C409.051 55.0955 410.011 57.4055 411.931 59.2655C413.911 61.1255 416.701 62.0555 420.301 62.0555C423.901 62.0555 426.661 60.8255 428.581 58.3655C424.681 54.4055 421.021 50.8955 417.601 47.8355C416.161 46.7555 414.721 45.5255 413.281 44.1455ZM468.274 79.0655C468.274 73.7855 473.194 69.6455 483.034 66.6455C480.694 65.4455 479.524 63.8855 479.524 61.9655C479.524 61.1855 479.824 60.4055 480.424 59.6255C481.024 58.8455 481.894 58.0355 483.034 57.1955V56.4755C478.714 56.4755 475.264 55.2755 472.684 52.8755C470.164 50.4755 468.904 47.2655 468.904 43.2455C468.904 38.0255 471.034 33.4955 475.294 29.6555C479.554 25.7555 484.594 23.8055 490.414 23.8055C491.914 23.8055 494.104 24.1055 496.984 24.7055C499.864 25.3055 502.684 25.6055 505.444 25.6055H512.374L511.474 33.4355L504.724 32.6255C505.324 34.3655 505.624 36.3455 505.624 38.5655C505.624 40.7855 505.084 43.0055 504.004 45.2255C502.984 47.3855 501.724 49.1255 500.224 50.4455C498.784 51.7655 497.314 52.9355 495.814 53.9555C494.374 54.9155 493.114 55.7855 492.034 56.5655C491.014 57.2855 490.504 57.9455 490.504 58.5455C490.504 59.6855 491.704 60.6755 494.104 61.5155C500.464 64.0955 504.754 66.2855 506.974 68.0855C509.254 69.8855 510.394 72.1055 510.394 74.7455C510.394 79.1855 508.144 82.8155 503.644 85.6355C499.204 88.5155 493.894 89.9555 487.714 89.9555C481.534 89.9555 476.734 88.9655 473.314 86.9855C469.954 85.0055 468.274 82.3655 468.274 79.0655ZM495.454 41.2655C495.454 38.3255 494.794 36.1655 493.474 34.7855C492.154 33.4055 490.084 32.7155 487.264 32.7155C481.804 32.7155 479.074 35.4155 479.074 40.8155C479.074 46.1555 481.984 48.8255 487.804 48.8255C492.904 48.8255 495.454 46.3055 495.454 41.2655ZM498.694 76.0955C498.694 75.0155 498.124 73.9955 496.984 73.0355C495.844 72.1355 493.804 71.0555 490.864 69.7955C486.484 70.9955 483.454 72.1055 481.774 73.1255C480.154 74.1455 479.344 75.4055 479.344 76.9055C479.344 78.4055 480.154 79.6055 481.774 80.5055C483.454 81.4655 485.764 81.9455 488.704 81.9455C491.644 81.9455 494.044 81.4055 495.904 80.3255C497.764 79.2455 498.694 77.8355 498.694 76.0955ZM516.137 26.6855L527.027 24.3455C527.567 28.9655 527.927 33.3455 528.107 37.4855C533.567 29.0255 538.697 24.7955 543.497 24.7955L542.507 38.8355C539.027 38.8355 536.267 39.1655 534.227 39.8255C532.247 40.4255 530.207 41.6555 528.107 43.5155V46.7555L529.097 67.9055L517.037 70.1555L518.117 48.2855C517.877 40.2455 517.217 33.0455 516.137 26.6855ZM546.507 51.3455C546.507 43.6655 548.577 37.1555 552.717 31.8155C556.857 26.4755 561.687 23.8055 567.207 23.8055C572.787 23.8055 577.107 25.6055 580.167 29.2055C583.287 32.8055 584.847 37.5755 584.847 43.5155C584.847 51.4355 582.837 58.0355 578.817 63.3155C574.857 68.5355 569.847 71.1455 563.787 71.1455C558.807 71.1455 554.667 69.2855 551.367 65.5655C548.127 61.7855 546.507 57.0455 546.507 51.3455ZM574.767 48.1955C574.767 39.4955 571.797 35.1455 565.857 35.1455C559.677 35.1455 556.587 39.2255 556.587 47.3855C556.587 51.6455 557.457 54.9755 559.197 57.3755C560.937 59.7755 563.217 60.9755 566.037 60.9755C568.917 60.9755 571.077 59.8955 572.517 57.7355C574.017 55.5155 574.767 52.3355 574.767 48.1955ZM632.765 58.9055H633.935L636.815 46.5755L641.495 24.3455L652.475 25.6955L645.905 48.0155L640.415 69.0755L625.655 70.4255L620.705 48.5555L620.255 47.1155L614.225 69.0755L599.915 70.4255L594.695 48.5555L588.485 26.6855L600.275 24.4355L603.965 44.2355L607.205 58.9055H608.375L616.115 33.2555L614.225 26.6855L625.835 24.4355L629.615 44.2355L632.765 58.9055ZM656.835 64.3055C656.835 62.2655 657.555 60.5255 658.995 59.0855C660.435 57.5855 662.115 56.8355 664.035 56.8355C665.955 56.8355 667.395 57.3755 668.355 58.4555C669.375 59.4755 669.885 61.0055 669.885 63.0455C669.885 65.0855 669.195 66.8855 667.815 68.4455C666.435 69.9455 664.785 70.6955 662.865 70.6955C661.005 70.6955 659.535 70.1255 658.455 68.9855C657.375 67.8455 656.835 66.2855 656.835 64.3055ZM673.665 7.15551L668.625 47.0255L660.075 48.2855V9.40552L673.665 7.15551Z"/>
</mask>
<path d="M20.2583 8.05551C26.0183 8.05551 30.6083 9.70551 34.0283 13.0055C37.4483 16.2455 39.1583 20.7155 39.1583 26.4155C39.1583 32.1155 36.9983 37.0055 32.6783 41.0855C28.3583 45.1055 23.0783 47.1155 16.8383 47.1155H11.7083L12.7883 70.1555H0.728321L1.80832 48.2855L0.728321 8.05551H20.2583ZM17.0183 17.1455H12.6083L11.9783 38.3855H18.0983C21.0983 38.3855 23.4083 37.3955 25.0283 35.4155C26.7083 33.4355 27.5483 30.6155 27.5483 26.9555C27.5483 20.4155 24.0383 17.1455 17.0183 17.1455ZM56.8693 0.495513L55.6993 46.7555L56.6893 67.9055L44.5393 70.1555L45.6193 48.2855L44.5393 2.74552L56.8693 0.495513ZM76.303 70.1555C72.763 70.1555 69.853 69.0455 67.573 66.8255C65.353 64.5455 64.243 61.5155 64.243 57.7355C64.243 53.8955 65.983 50.5955 69.463 47.8355C72.943 45.0155 77.173 43.6055 82.153 43.6055H88.273V42.0755C88.273 39.1355 87.673 37.1255 86.473 36.0455C85.273 34.9655 83.023 34.4255 79.723 34.4255C78.343 34.4255 76.693 34.7255 74.773 35.3255C72.913 35.8655 70.813 36.7355 68.473 37.9355L65.863 30.8255C68.443 29.0255 71.563 27.4055 75.223 25.9655C78.943 24.5255 82.003 23.8055 84.403 23.8055C93.823 23.8055 98.533 28.3655 98.533 37.4855V55.1255C98.533 58.4855 99.583 62.2355 101.683 66.3755L92.143 70.4255C90.643 67.5455 89.533 64.9655 88.813 62.6855C85.513 67.6655 81.343 70.1555 76.303 70.1555ZM80.083 60.9755C82.483 60.9755 85.213 59.7455 88.273 57.2855V51.2555C85.093 50.5355 82.513 50.1755 80.533 50.1755C76.753 50.1755 74.863 51.8555 74.863 55.2155C74.863 56.9555 75.343 58.3655 76.303 59.4455C77.263 60.4655 78.523 60.9755 80.083 60.9755ZM110.751 87.5255L120.021 66.7355L113.361 48.5555L104.271 26.6855L116.241 24.4355L122.001 43.6055L124.971 52.6955H126.141L128.301 46.1255L134.781 24.3455L145.851 25.6955L129.921 67.5455L122.361 89.9555L110.751 87.5255ZM160.956 64.1255C160.956 69.2255 157.236 74.6255 149.796 80.3255L146.106 77.6255C149.646 73.4855 151.416 69.9155 151.416 66.9155C151.416 65.0555 150.636 62.6855 149.076 59.8055L157.896 56.2955C159.936 58.8755 160.956 61.4855 160.956 64.1255ZM196 0.495513L194.83 46.7555L195.82 67.9055L183.67 70.1555L184.75 48.2855L183.67 2.74552L196 0.495513ZM222.634 60.9755C224.374 60.9755 226.204 60.5255 228.124 59.6255C230.044 58.7255 231.544 57.8255 232.624 56.9255L234.244 55.5755L238.384 60.6155C237.784 61.6355 236.854 62.8055 235.594 64.1255C234.334 65.4455 233.044 66.5855 231.724 67.5455C230.464 68.4455 228.754 69.2855 226.594 70.0655C224.494 70.7855 222.304 71.1455 220.024 71.1455C215.164 71.1455 211.204 69.3155 208.144 65.6555C205.084 61.9355 203.554 57.1655 203.554 51.3455C203.554 44.0255 205.684 37.6055 209.944 32.0855C214.204 26.5655 219.184 23.8055 224.884 23.8055C229.264 23.8055 232.654 25.0355 235.054 27.4955C237.514 29.9555 238.744 33.4055 238.744 37.8455C238.744 40.4855 238.294 43.4855 237.394 46.8455L235.594 48.7355L213.094 50.8055C214.114 57.5855 217.294 60.9755 222.634 60.9755ZM222.634 33.0755C219.994 33.0755 217.774 34.1555 215.974 36.3155C214.174 38.4155 213.124 41.1155 212.824 44.4155L228.124 42.5255C228.304 41.1455 228.394 40.0055 228.394 39.1055C228.394 35.0855 226.474 33.0755 222.634 33.0755ZM255.6 70.1555C252.06 70.1555 249.15 69.0455 246.87 66.8255C244.65 64.5455 243.54 61.5155 243.54 57.7355C243.54 53.8955 245.28 50.5955 248.76 47.8355C252.24 45.0155 256.47 43.6055 261.45 43.6055H267.57V42.0755C267.57 39.1355 266.97 37.1255 265.77 36.0455C264.57 34.9655 262.32 34.4255 259.02 34.4255C257.64 34.4255 255.99 34.7255 254.07 35.3255C252.21 35.8655 250.11 36.7355 247.77 37.9355L245.16 30.8255C247.74 29.0255 250.86 27.4055 254.52 25.9655C258.24 24.5255 261.3 23.8055 263.7 23.8055C273.12 23.8055 277.83 28.3655 277.83 37.4855V55.1255C277.83 58.4855 278.88 62.2355 280.98 66.3755L271.44 70.4255C269.94 67.5455 268.83 64.9655 268.11 62.6855C264.81 67.6655 260.64 70.1555 255.6 70.1555ZM259.38 60.9755C261.78 60.9755 264.51 59.7455 267.57 57.2855V51.2555C264.39 50.5355 261.81 50.1755 259.83 50.1755C256.05 50.1755 254.16 51.8555 254.16 55.2155C254.16 56.9555 254.64 58.3655 255.6 59.4455C256.56 60.4655 257.82 60.9755 259.38 60.9755ZM287.797 26.6855L298.687 24.3455C299.227 28.9655 299.587 33.3455 299.767 37.4855C305.227 29.0255 310.357 24.7955 315.157 24.7955L314.167 38.8355C310.687 38.8355 307.927 39.1655 305.887 39.8255C303.907 40.4255 301.867 41.6555 299.767 43.5155V46.7555L300.757 67.9055L288.697 70.1555L289.777 48.2855C289.537 40.2455 288.877 33.0455 287.797 26.6855ZM346.967 47.3855C346.967 43.2455 346.607 40.4855 345.887 39.1055C345.167 37.7255 343.487 37.0355 340.847 37.0355C338.207 37.0355 335.207 38.0855 331.847 40.1855V46.7555L332.837 67.9055L320.777 70.1555L321.857 48.2855C321.617 40.2455 320.957 33.0455 319.877 26.6855L330.767 24.3455C331.187 27.8255 331.487 31.2155 331.667 34.5155C332.567 33.3155 333.587 32.1455 334.727 31.0055C335.867 29.8055 337.667 28.4855 340.127 27.0455C342.587 25.5455 345.167 24.7955 347.867 24.7955C350.627 24.7955 352.937 25.8755 354.797 28.0355C356.657 30.1355 357.587 33.0155 357.587 36.6755L357.047 46.7555L358.037 68.3555L345.887 70.6055L346.967 47.3855ZM377.607 64.1255C377.607 69.2255 373.887 74.6255 366.447 80.3255L362.757 77.6255C366.297 73.4855 368.067 69.9155 368.067 66.9155C368.067 65.0555 367.287 62.6855 365.727 59.8055L374.547 56.2955C376.587 58.8755 377.607 61.4855 377.607 64.1255ZM437.131 40.8155C437.911 45.6755 438.301 48.9755 438.301 50.7155C438.301 52.3955 438.211 53.6855 438.031 54.5855L448.201 64.5755L440.821 71.1455C438.781 68.9255 436.381 66.3755 433.621 63.4955C431.641 65.8355 429.241 67.6955 426.421 69.0755C423.601 70.4555 420.661 71.1455 417.601 71.1455C412.141 71.1455 407.611 69.6755 404.011 66.7355C400.411 63.7355 398.611 59.9855 398.611 55.4855C398.611 49.4255 402.151 44.3255 409.231 40.1855C404.431 35.2055 402.031 30.7055 402.031 26.6855C402.031 22.6055 403.831 19.0955 407.431 16.1555C411.031 13.1555 415.381 11.6555 420.481 11.6555C423.601 11.6555 426.481 11.9855 429.121 12.6455C431.821 13.3055 433.741 13.9355 434.881 14.5355L436.501 15.5255L430.921 26.1455C429.361 24.8255 427.411 23.6555 425.071 22.6355C422.791 21.5555 420.601 21.0155 418.501 21.0155C416.461 21.0155 414.841 21.4955 413.641 22.4555C412.501 23.4155 411.931 24.6455 411.931 26.1455C411.931 28.2455 412.651 30.1655 414.091 31.9055C415.531 33.6455 418.981 36.9155 424.441 41.7155L430.651 47.4755C430.351 44.3555 429.571 39.7955 428.311 33.7955L429.481 32.6255H448.381L447.661 40.8155H437.131ZM413.281 44.1455C410.461 46.8455 409.051 49.5755 409.051 52.3355C409.051 55.0955 410.011 57.4055 411.931 59.2655C413.911 61.1255 416.701 62.0555 420.301 62.0555C423.901 62.0555 426.661 60.8255 428.581 58.3655C424.681 54.4055 421.021 50.8955 417.601 47.8355C416.161 46.7555 414.721 45.5255 413.281 44.1455ZM468.274 79.0655C468.274 73.7855 473.194 69.6455 483.034 66.6455C480.694 65.4455 479.524 63.8855 479.524 61.9655C479.524 61.1855 479.824 60.4055 480.424 59.6255C481.024 58.8455 481.894 58.0355 483.034 57.1955V56.4755C478.714 56.4755 475.264 55.2755 472.684 52.8755C470.164 50.4755 468.904 47.2655 468.904 43.2455C468.904 38.0255 471.034 33.4955 475.294 29.6555C479.554 25.7555 484.594 23.8055 490.414 23.8055C491.914 23.8055 494.104 24.1055 496.984 24.7055C499.864 25.3055 502.684 25.6055 505.444 25.6055H512.374L511.474 33.4355L504.724 32.6255C505.324 34.3655 505.624 36.3455 505.624 38.5655C505.624 40.7855 505.084 43.0055 504.004 45.2255C502.984 47.3855 501.724 49.1255 500.224 50.4455C498.784 51.7655 497.314 52.9355 495.814 53.9555C494.374 54.9155 493.114 55.7855 492.034 56.5655C491.014 57.2855 490.504 57.9455 490.504 58.5455C490.504 59.6855 491.704 60.6755 494.104 61.5155C500.464 64.0955 504.754 66.2855 506.974 68.0855C509.254 69.8855 510.394 72.1055 510.394 74.7455C510.394 79.1855 508.144 82.8155 503.644 85.6355C499.204 88.5155 493.894 89.9555 487.714 89.9555C481.534 89.9555 476.734 88.9655 473.314 86.9855C469.954 85.0055 468.274 82.3655 468.274 79.0655ZM495.454 41.2655C495.454 38.3255 494.794 36.1655 493.474 34.7855C492.154 33.4055 490.084 32.7155 487.264 32.7155C481.804 32.7155 479.074 35.4155 479.074 40.8155C479.074 46.1555 481.984 48.8255 487.804 48.8255C492.904 48.8255 495.454 46.3055 495.454 41.2655ZM498.694 76.0955C498.694 75.0155 498.124 73.9955 496.984 73.0355C495.844 72.1355 493.804 71.0555 490.864 69.7955C486.484 70.9955 483.454 72.1055 481.774 73.1255C480.154 74.1455 479.344 75.4055 479.344 76.9055C479.344 78.4055 480.154 79.6055 481.774 80.5055C483.454 81.4655 485.764 81.9455 488.704 81.9455C491.644 81.9455 494.044 81.4055 495.904 80.3255C497.764 79.2455 498.694 77.8355 498.694 76.0955ZM516.137 26.6855L527.027 24.3455C527.567 28.9655 527.927 33.3455 528.107 37.4855C533.567 29.0255 538.697 24.7955 543.497 24.7955L542.507 38.8355C539.027 38.8355 536.267 39.1655 534.227 39.8255C532.247 40.4255 530.207 41.6555 528.107 43.5155V46.7555L529.097 67.9055L517.037 70.1555L518.117 48.2855C517.877 40.2455 517.217 33.0455 516.137 26.6855ZM546.507 51.3455C546.507 43.6655 548.577 37.1555 552.717 31.8155C556.857 26.4755 561.687 23.8055 567.207 23.8055C572.787 23.8055 577.107 25.6055 580.167 29.2055C583.287 32.8055 584.847 37.5755 584.847 43.5155C584.847 51.4355 582.837 58.0355 578.817 63.3155C574.857 68.5355 569.847 71.1455 563.787 71.1455C558.807 71.1455 554.667 69.2855 551.367 65.5655C548.127 61.7855 546.507 57.0455 546.507 51.3455ZM574.767 48.1955C574.767 39.4955 571.797 35.1455 565.857 35.1455C559.677 35.1455 556.587 39.2255 556.587 47.3855C556.587 51.6455 557.457 54.9755 559.197 57.3755C560.937 59.7755 563.217 60.9755 566.037 60.9755C568.917 60.9755 571.077 59.8955 572.517 57.7355C574.017 55.5155 574.767 52.3355 574.767 48.1955ZM632.765 58.9055H633.935L636.815 46.5755L641.495 24.3455L652.475 25.6955L645.905 48.0155L640.415 69.0755L625.655 70.4255L620.705 48.5555L620.255 47.1155L614.225 69.0755L599.915 70.4255L594.695 48.5555L588.485 26.6855L600.275 24.4355L603.965 44.2355L607.205 58.9055H608.375L616.115 33.2555L614.225 26.6855L625.835 24.4355L629.615 44.2355L632.765 58.9055ZM656.835 64.3055C656.835 62.2655 657.555 60.5255 658.995 59.0855C660.435 57.5855 662.115 56.8355 664.035 56.8355C665.955 56.8355 667.395 57.3755 668.355 58.4555C669.375 59.4755 669.885 61.0055 669.885 63.0455C669.885 65.0855 669.195 66.8855 667.815 68.4455C666.435 69.9455 664.785 70.6955 662.865 70.6955C661.005 70.6955 659.535 70.1255 658.455 68.9855C657.375 67.8455 656.835 66.2855 656.835 64.3055ZM673.665 7.15551L668.625 47.0255L660.075 48.2855V9.40552L673.665 7.15551Z" fill="#1CB5C7"/>
<path d="M34.0283 13.0055L27.0846 20.2017L27.1176 20.2335L27.1509 20.265L34.0283 13.0055ZM32.6783 41.0855L39.4906 48.4062L39.5177 48.381L39.5446 48.3556L32.6783 41.0855ZM11.7083 47.1155V37.1155H1.22859L1.71929 47.5838L11.7083 47.1155ZM12.7883 70.1555V80.1555H23.2681L22.7774 69.6873L12.7883 70.1555ZM0.728321 70.1555L-9.25951 69.6623L-9.77769 80.1555H0.728321V70.1555ZM1.80832 48.2855L11.7962 48.7787L11.8149 48.3981L11.8047 48.0172L1.80832 48.2855ZM0.728321 8.05551V-1.94449H-9.54374L-9.26808 8.32387L0.728321 8.05551ZM12.6083 17.1455V7.14551H2.90053L2.61272 16.849L12.6083 17.1455ZM11.9783 38.3855L1.98272 38.089L1.67731 48.3855H11.9783V38.3855ZM25.0283 35.4155L17.4032 28.9457L17.3454 29.0139L17.2888 29.0831L25.0283 35.4155ZM20.2583 18.0555C24.0106 18.0555 25.9097 19.068 27.0846 20.2017L40.972 5.80932C35.307 0.343067 28.026 -1.94449 20.2583 -1.94449V18.0555ZM27.1509 20.265C28.1677 21.2284 29.1583 22.8408 29.1583 26.4155H49.1583C49.1583 18.5903 46.7289 11.2627 40.9058 5.74599L27.1509 20.265ZM29.1583 26.4155C29.1583 29.2354 28.2275 31.5342 25.8121 33.8154L39.5446 48.3556C45.7692 42.4768 49.1583 34.9956 49.1583 26.4155H29.1583ZM25.866 33.7648C23.5101 35.9572 20.71 37.1155 16.8383 37.1155V57.1155C25.4466 57.1155 33.2066 54.2539 39.4906 48.4062L25.866 33.7648ZM16.8383 37.1155H11.7083V57.1155H16.8383V37.1155ZM1.71929 47.5838L2.79929 70.6238L22.7774 69.6873L21.6974 46.6473L1.71929 47.5838ZM12.7883 60.1555H0.728321V80.1555H12.7883V60.1555ZM10.7162 70.6487L11.7962 48.7787L-8.17951 47.7923L-9.25951 69.6623L10.7162 70.6487ZM11.8047 48.0172L10.7247 7.78715L-9.26808 8.32387L-8.18808 48.5539L11.8047 48.0172ZM0.728321 18.0555H20.2583V-1.94449H0.728321V18.0555ZM17.0183 7.14551H12.6083V27.1455H17.0183V7.14551ZM2.61272 16.849L1.98272 38.089L21.9739 38.682L22.6039 17.442L2.61272 16.849ZM11.9783 48.3855H18.0983V28.3855H11.9783V48.3855ZM18.0983 48.3855C23.5203 48.3855 28.911 46.4619 32.7679 41.7479L17.2888 29.0831C17.3671 28.9874 17.4885 28.8625 17.6548 28.7369C17.8216 28.6107 17.9912 28.516 18.1416 28.4516C18.4481 28.3202 18.5016 28.3855 18.0983 28.3855V48.3855ZM32.6534 41.8853C36.3902 37.4812 37.5483 32.026 37.5483 26.9555H17.5483C17.5483 29.2051 17.0264 29.3899 17.4032 28.9457L32.6534 41.8853ZM37.5483 26.9555C37.5483 21.9554 36.1732 16.4185 31.7323 12.2812C27.4249 8.26832 21.9006 7.14551 17.0183 7.14551V27.1455C17.5115 27.1455 17.8895 27.1745 18.167 27.2114C18.4442 27.2483 18.6003 27.2904 18.6595 27.3088C18.7162 27.3264 18.6702 27.3178 18.5558 27.2539C18.4376 27.1879 18.2747 27.0782 18.0993 26.9148C17.9228 26.7503 17.7744 26.5693 17.6603 26.3921C17.5481 26.2179 17.4941 26.0866 17.4747 26.0325C17.4422 25.9415 17.5483 26.1878 17.5483 26.9555H37.5483ZM56.8693 0.495514L66.8661 0.74835L67.1772 -11.5506L55.0742 -9.34203L56.8693 0.495514ZM55.6993 46.7555L45.7025 46.5027L45.6934 46.863L45.7103 47.2231L55.6993 46.7555ZM56.6893 67.9055L58.5102 77.7383L67.0862 76.1502L66.6784 67.4379L56.6893 67.9055ZM44.5393 70.1555L34.5515 69.6623L33.9279 82.2906L46.3602 79.9883L44.5393 70.1555ZM45.6193 48.2855L55.6072 48.7787L55.6252 48.4138L55.6165 48.0484L45.6193 48.2855ZM44.5393 2.74552L42.7442 -7.09203L34.3396 -5.55835L34.5421 2.9826L44.5393 2.74552ZM46.8725 0.242676L45.7025 46.5027L65.6961 47.0084L66.8661 0.74835L46.8725 0.242676ZM45.7103 47.2231L46.7003 68.3731L66.6784 67.4379L65.6884 46.2879L45.7103 47.2231ZM54.8684 58.0727L42.7184 60.3227L46.3602 79.9883L58.5102 77.7383L54.8684 58.0727ZM54.5272 70.6487L55.6072 48.7787L35.6315 47.7923L34.5515 69.6623L54.5272 70.6487ZM55.6165 48.0484L54.5365 2.50843L34.5421 2.9826L35.6221 48.5226L55.6165 48.0484ZM46.3345 12.5831L58.6645 10.3331L55.0742 -9.34203L42.7442 -7.09203L46.3345 12.5831ZM67.573 66.8255L60.4083 73.8017L60.5013 73.8972L60.5968 73.9902L67.573 66.8255ZM69.463 47.8355L75.677 55.6705L75.7181 55.6379L75.7588 55.6048L69.463 47.8355ZM88.273 43.6055V53.6055H98.273V43.6055H88.273ZM86.473 36.0455L79.7834 43.4785L86.473 36.0455ZM74.773 35.3255L77.5611 44.929L77.6587 44.9006L77.7558 44.8703L74.773 35.3255ZM68.473 37.9355L59.0855 41.3816L62.98 51.9907L73.0362 46.8337L68.473 37.9355ZM65.863 30.8255L60.1412 22.6242L53.8191 27.035L56.4755 34.2716L65.863 30.8255ZM75.223 25.9655L71.6131 16.6398L71.5874 16.6498L71.5618 16.6599L75.223 25.9655ZM101.683 66.3755L105.591 75.5804L115.443 71.3977L110.601 61.8518L101.683 66.3755ZM92.143 70.4255L83.2739 75.0449L87.5432 83.2421L96.0507 79.6304L92.143 70.4255ZM88.813 62.6855L98.3488 59.6742L92.0434 39.7071L80.4771 57.1617L88.813 62.6855ZM88.273 57.2855L94.5386 65.0793L98.273 62.0771V57.2855H88.273ZM88.273 51.2555H98.273V43.2666L90.4813 41.5024L88.273 51.2555ZM76.303 59.4455L68.8289 66.0892L68.9235 66.1955L69.021 66.2992L76.303 59.4455ZM76.303 60.1555C75.0495 60.1555 74.745 59.8515 74.5492 59.6608L60.5968 73.9902C64.961 78.2395 70.4765 80.1555 76.303 80.1555V60.1555ZM74.7377 59.8493C74.6708 59.7806 74.243 59.433 74.243 57.7355H54.243C54.243 63.5981 56.0352 69.3104 60.4083 73.8017L74.7377 59.8493ZM74.243 57.7355C74.243 57.4488 74.1669 56.8681 75.677 55.6705L63.2491 40.0005C57.7991 44.3229 54.243 50.3422 54.243 57.7355H74.243ZM75.7588 55.6048C77.2572 54.3906 79.1929 53.6055 82.153 53.6055V33.6055C75.1531 33.6055 68.6288 35.6404 63.1672 40.0662L75.7588 55.6048ZM82.153 53.6055H88.273V33.6055H82.153V53.6055ZM98.273 43.6055V42.0755H78.273V43.6055H98.273ZM98.273 42.0755C98.273 38.4488 97.6623 32.6623 93.1627 28.6126L79.7834 43.4785C78.6655 42.4724 78.3123 41.4627 78.2408 41.2234C78.1775 41.0113 78.273 41.2176 78.273 42.0755H98.273ZM93.1627 28.6126C88.9778 24.8462 83.3117 24.4255 79.723 24.4255V44.4255C80.2814 44.4255 80.7128 44.4486 81.0327 44.4798C81.3564 44.5113 81.5185 44.5464 81.5518 44.5544C81.5891 44.5634 81.4229 44.5281 81.1257 44.3885C80.8244 44.247 80.3302 43.9706 79.7834 43.4785L93.1627 28.6126ZM79.723 24.4255C76.984 24.4255 74.276 25.0039 71.7903 25.7807L77.7558 44.8703C78.3986 44.6694 78.8881 44.5531 79.2394 44.4892C79.5951 44.4245 79.7445 44.4255 79.723 44.4255V24.4255ZM71.9849 25.7221C69.339 26.4902 66.631 27.6419 63.9098 29.0373L73.0362 46.8337C74.995 45.8292 76.487 45.2408 77.5611 44.929L71.9849 25.7221ZM77.8605 34.4895L75.2505 27.3795L56.4755 34.2716L59.0855 41.3816L77.8605 34.4895ZM71.5848 39.0268C73.3874 37.7692 75.7793 36.4928 78.8843 35.2712L71.5618 16.6599C67.3467 18.3182 63.4986 20.2819 60.1412 22.6242L71.5848 39.0268ZM78.833 35.2912C82.0616 34.0414 83.7889 33.8055 84.403 33.8055V13.8055C80.2172 13.8055 75.8245 15.0096 71.6131 16.6398L78.833 35.2912ZM84.403 33.8055C87.6512 33.8055 88.236 34.5952 88.0448 34.4101C87.7934 34.1667 88.533 34.5507 88.533 37.4855H108.533C108.533 31.3004 106.918 24.8444 101.956 20.041C97.055 15.2958 90.5748 13.8055 84.403 13.8055V33.8055ZM88.533 37.4855V55.1255H108.533V37.4855H88.533ZM88.533 55.1255C88.533 60.5403 90.2101 65.8629 92.7647 70.8993L110.601 61.8518C108.956 58.6081 108.533 56.4307 108.533 55.1255H88.533ZM97.7753 57.1706L88.2353 61.2206L96.0507 79.6304L105.591 75.5804L97.7753 57.1706ZM101.012 65.8062C99.6924 63.2723 98.8444 61.2434 98.3488 59.6742L79.2772 65.6968C80.2217 68.6877 81.5936 71.8187 83.2739 75.0449L101.012 65.8062ZM80.4771 57.1617C78.633 59.9446 77.3303 60.1555 76.303 60.1555V80.1555C85.3558 80.1555 92.393 75.3864 97.1489 68.2093L80.4771 57.1617ZM80.083 70.9755C85.8144 70.9755 90.7473 68.1272 94.5386 65.0793L82.0074 49.4918C80.9456 50.3454 80.2189 50.7572 79.8227 50.9357C79.4385 51.1088 79.5617 50.9755 80.083 50.9755V70.9755ZM98.273 57.2855V51.2555H78.273V57.2855H98.273ZM90.4813 41.5024C86.9776 40.7091 83.5776 40.1755 80.533 40.1755V60.1755C81.4484 60.1755 83.2084 60.3619 86.0648 61.0087L90.4813 41.5024ZM80.533 40.1755C77.3727 40.1755 73.1347 40.8523 69.6369 43.9614C65.9146 47.2701 64.863 51.669 64.863 55.2155H84.863C84.863 55.402 84.7564 57.2809 82.9241 58.9096C81.3163 60.3388 79.9133 60.1755 80.533 60.1755V40.1755ZM64.863 55.2155C64.863 58.8794 65.9237 62.8208 68.8289 66.0892L83.7771 52.8019C84.21 53.2889 84.5135 53.8384 84.6895 54.3554C84.8565 54.846 84.863 55.1696 84.863 55.2155H64.863ZM69.021 66.2992C72.0959 69.5662 76.1123 70.9755 80.083 70.9755V50.9755C80.4009 50.9755 80.9952 51.0302 81.7199 51.3235C82.4684 51.6265 83.1073 52.0843 83.585 52.5919L69.021 66.2992ZM110.751 87.5255L101.617 83.4531L96.5694 94.7741L108.702 97.3134L110.751 87.5255ZM120.021 66.7355L129.154 70.8079L130.805 67.1038L129.41 63.2957L120.021 66.7355ZM113.361 48.5555L122.75 45.1157L122.677 44.9149L122.595 44.7175L113.361 48.5555ZM104.271 26.6855L102.423 16.8576L90.3032 19.1358L95.0364 30.5236L104.271 26.6855ZM116.241 24.4355L125.818 21.5579L123.23 12.9466L114.393 14.6076L116.241 24.4355ZM122.001 43.6055L112.423 46.4831L112.458 46.5976L112.495 46.7113L122.001 43.6055ZM124.971 52.6955L115.465 55.8013L117.718 62.6955H124.971V52.6955ZM126.141 52.6955V62.6955H133.379L135.64 55.8187L126.141 52.6955ZM128.301 46.1255L137.8 49.2487L137.845 49.1136L137.885 48.9772L128.301 46.1255ZM134.781 24.3455L135.991 14.4191L127.605 13.3964L125.196 21.4938L134.781 24.3455ZM145.851 25.6955L155.196 29.253L159.74 17.3153L147.061 15.7691L145.851 25.6955ZM129.921 67.5455L120.575 63.9881L120.506 64.1673L120.445 64.349L129.921 67.5455ZM122.361 89.9555L120.312 99.7434L128.999 101.562L131.836 93.152L122.361 89.9555ZM119.884 91.5979L129.154 70.8079L110.887 62.6631L101.617 83.4531L119.884 91.5979ZM129.41 63.2957L122.75 45.1157L103.971 51.9953L110.631 70.1753L129.41 63.2957ZM122.595 44.7175L113.505 22.8475L95.0364 30.5236L104.126 52.3936L122.595 44.7175ZM106.118 36.5134L118.088 34.2634L114.393 14.6076L102.423 16.8576L106.118 36.5134ZM106.663 27.3131L112.423 46.4831L131.578 40.7279L125.818 21.5579L106.663 27.3131ZM112.495 46.7113L115.465 55.8013L134.476 49.5898L131.506 40.4998L112.495 46.7113ZM124.971 62.6955H126.141V42.6955H124.971V62.6955ZM135.64 55.8187L137.8 49.2487L118.801 43.0023L116.641 49.5723L135.64 55.8187ZM137.885 48.9772L144.365 27.1972L125.196 21.4938L118.716 43.2738L137.885 48.9772ZM133.57 34.272L144.64 35.622L147.061 15.7691L135.991 14.4191L133.57 34.272ZM136.505 22.1381L120.575 63.9881L139.266 71.103L155.196 29.253L136.505 22.1381ZM120.445 64.349L112.885 86.759L131.836 93.152L139.396 70.742L120.445 64.349ZM124.409 80.1676L112.799 77.7376L108.702 97.3134L120.312 99.7434L124.409 80.1676ZM149.796 80.3255L143.891 88.3958L149.934 92.8174L155.878 88.2636L149.796 80.3255ZM146.106 77.6255L138.506 71.1267L131.495 79.3256L140.201 85.6958L146.106 77.6255ZM149.076 59.8055L145.379 50.5142L134.924 54.6747L140.284 64.5684L149.076 59.8055ZM157.896 56.2955L165.741 50.0932L161.12 44.2498L154.199 47.0042L157.896 56.2955ZM150.956 64.1255C150.956 64.2847 150.637 67.0843 143.715 72.3874L155.878 88.2636C163.836 82.1668 170.956 74.1664 170.956 64.1255H150.956ZM155.702 72.2552L152.012 69.5552L140.201 85.6958L143.891 88.3958L155.702 72.2552ZM153.707 84.1244C157.671 79.4881 161.416 73.5919 161.416 66.9155H141.416C141.416 66.4542 141.545 66.5631 141.13 67.401C140.717 68.2332 139.921 69.4717 138.506 71.1267L153.707 84.1244ZM161.416 66.9155C161.416 62.5657 159.702 58.4265 157.869 55.0427L140.284 64.5684C140.862 65.6369 141.176 66.3931 141.333 66.8692C141.496 67.367 141.416 67.3402 141.416 66.9155H161.416ZM152.774 69.0968L161.594 65.5868L154.199 47.0042L145.379 50.5142L152.774 69.0968ZM150.052 62.4979C150.562 63.1425 150.784 63.589 150.877 63.828C150.924 63.9459 150.942 64.0212 150.949 64.0583C150.956 64.0943 150.956 64.1139 150.956 64.1255H170.956C170.956 58.727 168.826 53.995 165.741 50.0932L150.052 62.4979ZM196 0.495514L205.997 0.74835L206.308 -11.5506L194.205 -9.34203L196 0.495514ZM194.83 46.7555L184.833 46.5027L184.824 46.863L184.841 47.2231L194.83 46.7555ZM195.82 67.9055L197.641 77.7383L206.217 76.1502L205.809 67.4379L195.82 67.9055ZM183.67 70.1555L173.682 69.6623L173.059 82.2906L185.491 79.9883L183.67 70.1555ZM184.75 48.2855L194.738 48.7787L194.756 48.4138L194.747 48.0484L184.75 48.2855ZM183.67 2.74552L181.875 -7.09203L173.47 -5.55835L173.673 2.9826L183.67 2.74552ZM186.003 0.242676L184.833 46.5027L204.827 47.0084L205.997 0.74835L186.003 0.242676ZM184.841 47.2231L185.831 68.3731L205.809 67.4379L204.819 46.2879L184.841 47.2231ZM193.999 58.0727L181.849 60.3227L185.491 79.9883L197.641 77.7383L193.999 58.0727ZM193.658 70.6487L194.738 48.7787L174.762 47.7923L173.682 69.6623L193.658 70.6487ZM194.747 48.0484L193.667 2.50843L173.673 2.9826L174.753 48.5226L194.747 48.0484ZM185.465 12.5831L197.795 10.3331L194.205 -9.34203L181.875 -7.09203L185.465 12.5831ZM228.124 59.6255L223.88 50.5709V50.5709L228.124 59.6255ZM232.624 56.9255L226.222 49.2433L226.222 49.2433L232.624 56.9255ZM234.244 55.5755L241.971 49.2281L235.579 41.4461L227.842 47.8933L234.244 55.5755ZM238.384 60.6155L247.003 65.6857L250.545 59.6654L246.111 54.2681L238.384 60.6155ZM231.724 67.5455L237.536 75.6829L237.571 75.658L237.606 75.6329L231.724 67.5455ZM226.594 70.0655L229.837 79.525L229.914 79.4986L229.99 79.4711L226.594 70.0655ZM208.144 65.6555L200.421 72.0082L200.446 72.0391L200.472 72.0697L208.144 65.6555ZM209.944 32.0855L217.861 38.1951V38.1951L209.944 32.0855ZM235.054 27.4955L227.896 34.4788L227.939 34.5229L227.983 34.5666L235.054 27.4955ZM237.394 46.8455L244.635 53.7421L246.394 51.8957L247.053 49.4329L237.394 46.8455ZM235.594 48.7355L236.51 58.6935L240.247 58.3497L242.835 55.6321L235.594 48.7355ZM213.094 50.8055L212.178 40.8476L201.629 41.818L203.205 52.2932L213.094 50.8055ZM215.974 36.3155L223.566 42.8234L223.612 42.7707L223.656 42.7174L215.974 36.3155ZM212.824 44.4155L202.865 43.5102L201.742 55.8604L214.05 54.3401L212.824 44.4155ZM228.124 42.5255L229.35 52.4501L237.038 51.5004L238.04 43.8189L228.124 42.5255ZM222.634 70.9755C226.126 70.9755 229.405 70.0692 232.368 68.6801L223.88 50.5709C223.442 50.7758 223.126 50.8775 222.923 50.9273C222.726 50.9759 222.636 50.9755 222.634 50.9755V70.9755ZM232.368 68.6801C234.713 67.581 237.046 66.2576 239.026 64.6077L226.222 49.2433C226.042 49.3934 225.375 49.8701 223.88 50.5709L232.368 68.6801ZM239.026 64.6077L240.646 63.2577L227.842 47.8933L226.222 49.2433L239.026 64.6077ZM226.517 61.9229L230.657 66.9629L246.111 54.2681L241.971 49.2281L226.517 61.9229ZM229.765 55.5453C229.704 55.6476 229.342 56.1919 228.36 57.2208L242.827 71.0303C244.365 69.4191 245.863 67.6235 247.003 65.6857L229.765 55.5453ZM228.36 57.2208C227.467 58.1568 226.624 58.8895 225.842 59.4582L237.606 75.6329C239.464 74.2816 241.201 72.7342 242.827 71.0303L228.36 57.2208ZM225.911 59.4082C225.66 59.5879 224.87 60.056 223.197 60.66L229.99 79.4711C232.638 78.515 235.268 77.3031 237.536 75.6829L225.911 59.4082ZM223.351 60.6061C222.323 60.9585 221.231 61.1455 220.024 61.1455V81.1455C223.377 81.1455 226.665 80.6125 229.837 79.525L223.351 60.6061ZM220.024 61.1455C218.062 61.1455 216.935 60.58 215.816 59.2413L200.472 72.0697C205.473 78.051 212.266 81.1455 220.024 81.1455V61.1455ZM215.867 59.3028C214.569 57.7247 213.554 55.3492 213.554 51.3455H193.554C193.554 58.9819 195.599 66.1463 200.421 72.0082L215.867 59.3028ZM213.554 51.3455C213.554 46.1182 215.022 41.8736 217.861 38.1951L202.027 25.9759C196.346 33.3375 193.554 41.9328 193.554 51.3455H213.554ZM217.861 38.1951C220.697 34.5198 222.979 33.8055 224.884 33.8055V13.8055C215.389 13.8055 207.711 18.6113 202.027 25.9759L217.861 38.1951ZM224.884 33.8055C227.348 33.8055 227.86 34.4421 227.896 34.4788L242.212 20.5123C237.447 15.629 231.18 13.8055 224.884 13.8055V33.8055ZM227.983 34.5666C228.086 34.67 228.744 35.2892 228.744 37.8455H248.744C248.744 31.5218 246.942 25.2411 242.125 20.4244L227.983 34.5666ZM228.744 37.8455C228.744 39.386 228.475 41.4917 227.734 44.2582L247.053 49.4329C248.112 45.4793 248.744 41.585 248.744 37.8455H228.744ZM230.152 39.949L228.352 41.839L242.835 55.6321L244.635 53.7421L230.152 39.949ZM234.678 38.7776L212.178 40.8476L214.01 60.7635L236.51 58.6935L234.678 38.7776ZM203.205 52.2932C203.881 56.7862 205.456 61.5498 208.951 65.2746C212.719 69.2915 217.652 70.9755 222.634 70.9755V50.9755C222.359 50.9755 222.443 50.9337 222.731 51.0484C223.049 51.1751 223.342 51.3835 223.537 51.5915C223.706 51.7716 223.653 51.7921 223.507 51.4378C223.355 51.0707 223.145 50.4001 222.983 49.3178L203.205 52.2932ZM222.634 23.0755C216.812 23.0755 211.85 25.6432 208.292 29.9137L223.656 42.7174C223.775 42.5744 223.693 42.7178 223.364 42.8779C223.21 42.9525 223.051 43.0068 222.902 43.0399C222.756 43.0724 222.66 43.0755 222.634 43.0755V23.0755ZM208.381 29.8076C204.98 33.7759 203.315 38.561 202.865 43.5102L222.783 45.3209C222.933 43.67 223.368 43.0551 223.566 42.8234L208.381 29.8076ZM214.05 54.3401L229.35 52.4501L226.898 32.601L211.598 34.491L214.05 54.3401ZM238.04 43.8189C238.249 42.2144 238.394 40.6042 238.394 39.1055H218.394C218.394 39.4068 218.359 40.0766 218.208 41.2321L238.04 43.8189ZM238.394 39.1055C238.394 35.6656 237.58 31.2297 234.185 27.6757C230.708 24.0361 226.215 23.0755 222.634 23.0755V43.0755C222.893 43.0755 221.279 43.12 219.723 41.4903C218.248 39.9463 218.394 38.5254 218.394 39.1055H238.394ZM246.87 66.8255L239.705 73.8017L239.798 73.8972L239.894 73.9902L246.87 66.8255ZM248.76 47.8355L254.974 55.6705L255.015 55.6379L255.056 55.6048L248.76 47.8355ZM267.57 43.6055V53.6055H277.57V43.6055H267.57ZM265.77 36.0455L259.08 43.4785L265.77 36.0455ZM254.07 35.3255L256.858 44.929L256.956 44.9006L257.053 44.8703L254.07 35.3255ZM247.77 37.9355L238.382 41.3816L242.277 51.9907L252.333 46.8337L247.77 37.9355ZM245.16 30.8255L239.438 22.6242L233.116 27.035L235.772 34.2716L245.16 30.8255ZM254.52 25.9655L250.91 16.6398L250.884 16.6498L250.859 16.6599L254.52 25.9655ZM280.98 66.3755L284.888 75.5804L294.74 71.3977L289.898 61.8518L280.98 66.3755ZM271.44 70.4255L262.571 75.0449L266.84 83.2421L275.348 79.6304L271.44 70.4255ZM268.11 62.6855L277.646 59.6742L271.34 39.7071L259.774 57.1617L268.11 62.6855ZM267.57 57.2855L273.835 65.0793L277.57 62.0771V57.2855H267.57ZM267.57 51.2555H277.57V43.2666L269.778 41.5024L267.57 51.2555ZM255.6 59.4455L248.126 66.0892L248.22 66.1955L248.318 66.2992L255.6 59.4455ZM255.6 60.1555C254.346 60.1555 254.042 59.8515 253.846 59.6608L239.894 73.9902C244.258 78.2395 249.773 80.1555 255.6 80.1555V60.1555ZM254.035 59.8493C253.968 59.7806 253.54 59.433 253.54 57.7355H233.54C233.54 63.5981 235.332 69.3104 239.705 73.8017L254.035 59.8493ZM253.54 57.7355C253.54 57.4488 253.464 56.8681 254.974 55.6705L242.546 40.0005C237.096 44.3229 233.54 50.3422 233.54 57.7355H253.54ZM255.056 55.6048C256.554 54.3906 258.49 53.6055 261.45 53.6055V33.6055C254.45 33.6055 247.926 35.6404 242.464 40.0662L255.056 55.6048ZM261.45 53.6055H267.57V33.6055H261.45V53.6055ZM277.57 43.6055V42.0755H257.57V43.6055H277.57ZM277.57 42.0755C277.57 38.4488 276.959 32.6623 272.46 28.6126L259.08 43.4785C257.962 42.4724 257.609 41.4627 257.538 41.2234C257.474 41.0113 257.57 41.2176 257.57 42.0755H277.57ZM272.46 28.6126C268.275 24.8462 262.609 24.4255 259.02 24.4255V44.4255C259.578 44.4255 260.01 44.4486 260.33 44.4798C260.653 44.5113 260.815 44.5464 260.849 44.5544C260.886 44.5634 260.72 44.5281 260.423 44.3885C260.121 44.247 259.627 43.9706 259.08 43.4785L272.46 28.6126ZM259.02 24.4255C256.281 24.4255 253.573 25.0039 251.087 25.7807L257.053 44.8703C257.696 44.6694 258.185 44.5531 258.536 44.4892C258.892 44.4245 259.041 44.4255 259.02 44.4255V24.4255ZM251.282 25.7221C248.636 26.4902 245.928 27.6419 243.207 29.0373L252.333 46.8337C254.292 45.8292 255.784 45.2408 256.858 44.929L251.282 25.7221ZM257.157 34.4895L254.547 27.3795L235.772 34.2716L238.382 41.3816L257.157 34.4895ZM250.882 39.0268C252.684 37.7692 255.076 36.4928 258.181 35.2712L250.859 16.6599C246.644 18.3182 242.795 20.2819 239.438 22.6242L250.882 39.0268ZM258.13 35.2912C261.358 34.0414 263.086 33.8055 263.7 33.8055V13.8055C259.514 13.8055 255.121 15.0096 250.91 16.6398L258.13 35.2912ZM263.7 33.8055C266.948 33.8055 267.533 34.5952 267.342 34.4101C267.09 34.1667 267.83 34.5507 267.83 37.4855H287.83C287.83 31.3004 286.215 24.8444 281.253 20.041C276.352 15.2958 269.872 13.8055 263.7 13.8055V33.8055ZM267.83 37.4855V55.1255H287.83V37.4855H267.83ZM267.83 55.1255C267.83 60.5403 269.507 65.8629 272.062 70.8993L289.898 61.8518C288.253 58.6081 287.83 56.4307 287.83 55.1255H267.83ZM277.072 57.1706L267.532 61.2206L275.348 79.6304L284.888 75.5804L277.072 57.1706ZM280.309 65.8062C278.989 63.2723 278.141 61.2434 277.646 59.6742L258.574 65.6968C259.519 68.6877 260.89 71.8187 262.571 75.0449L280.309 65.8062ZM259.774 57.1617C257.93 59.9446 256.627 60.1555 255.6 60.1555V80.1555C264.653 80.1555 271.69 75.3864 276.446 68.2093L259.774 57.1617ZM259.38 70.9755C265.111 70.9755 270.044 68.1272 273.835 65.0793L261.304 49.4918C260.243 50.3454 259.516 50.7572 259.12 50.9357C258.735 51.1088 258.859 50.9755 259.38 50.9755V70.9755ZM277.57 57.2855V51.2555H257.57V57.2855H277.57ZM269.778 41.5024C266.274 40.7091 262.874 40.1755 259.83 40.1755V60.1755C260.745 60.1755 262.505 60.3619 265.362 61.0087L269.778 41.5024ZM259.83 40.1755C256.67 40.1755 252.432 40.8523 248.934 43.9614C245.211 47.2701 244.16 51.669 244.16 55.2155H264.16C264.16 55.402 264.053 57.2809 262.221 58.9096C260.613 60.3388 259.21 60.1755 259.83 60.1755V40.1755ZM244.16 55.2155C244.16 58.8794 245.221 62.8208 248.126 66.0892L263.074 52.8019C263.507 53.2889 263.81 53.8384 263.986 54.3554C264.153 54.846 264.16 55.1696 264.16 55.2155H244.16ZM248.318 66.2992C251.393 69.5662 255.409 70.9755 259.38 70.9755V50.9755C259.698 50.9755 260.292 51.0302 261.017 51.3235C261.765 51.6265 262.404 52.0843 262.882 52.5919L248.318 66.2992ZM287.797 26.6855L285.697 16.9087L276.336 18.9201L277.939 28.3597L287.797 26.6855ZM298.687 24.3455L308.62 23.1846L307.343 12.2575L296.587 14.5687L298.687 24.3455ZM299.767 37.4855L289.777 37.9199L291.141 69.2931L308.169 42.9081L299.767 37.4855ZM315.157 24.7955L325.133 25.4989L325.887 14.7955H315.157V24.7955ZM314.167 38.8355V48.8355H323.487L324.143 39.5389L314.167 38.8355ZM305.887 39.8255L308.787 49.3958L308.877 49.3687L308.966 49.34L305.887 39.8255ZM299.767 43.5155L293.137 36.0296L289.767 39.0142V43.5155H299.767ZM299.767 46.7555H289.767V46.9894L289.778 47.2231L299.767 46.7555ZM300.757 67.9055L302.591 77.7359L311.154 76.1385L310.746 67.4379L300.757 67.9055ZM288.697 70.1555L278.71 69.6623L278.085 82.308L290.531 79.9859L288.697 70.1555ZM289.777 48.2855L299.765 48.7787L299.785 48.3831L299.773 47.9871L289.777 48.2855ZM289.898 36.4624L300.788 34.1224L296.587 14.5687L285.697 16.9087L289.898 36.4624ZM288.755 25.5064C289.27 29.9137 289.609 34.0499 289.777 37.9199L309.758 37.0511C309.566 32.6411 309.185 28.0173 308.62 23.1846L288.755 25.5064ZM308.169 42.9081C310.598 39.1461 312.597 36.899 314.072 35.6834C315.53 34.4814 315.833 34.7955 315.157 34.7955V14.7955C309.682 14.7955 305.02 17.2247 301.348 20.2526C297.692 23.267 294.397 27.365 291.365 32.0629L308.169 42.9081ZM305.182 24.0921L304.192 38.1321L324.143 39.5389L325.133 25.4989L305.182 24.0921ZM314.167 28.8355C310.208 28.8355 306.267 29.1923 302.809 30.3111L308.966 49.34C309.587 49.1388 311.167 48.8355 314.167 48.8355V28.8355ZM302.987 30.2553C299.229 31.394 295.953 33.5356 293.137 36.0296L306.398 51.0014C307.782 49.7754 308.585 49.457 308.787 49.3958L302.987 30.2553ZM289.767 43.5155V46.7555H309.767V43.5155H289.767ZM289.778 47.2231L290.768 68.3731L310.746 67.4379L309.756 46.2879L289.778 47.2231ZM298.923 58.0751L286.863 60.3251L290.531 79.9859L302.591 77.7359L298.923 58.0751ZM298.685 70.6487L299.765 48.7787L279.79 47.7923L278.71 69.6623L298.685 70.6487ZM299.773 47.9871C299.522 39.5932 298.83 31.9211 297.656 25.0114L277.939 28.3597C278.925 34.17 279.552 40.8978 279.782 48.5839L299.773 47.9871ZM346.967 47.3855L356.957 47.8501L356.967 47.6179V47.3855H346.967ZM345.887 39.1055L354.753 34.4799L354.753 34.4798L345.887 39.1055ZM331.847 40.1855L326.547 31.7055L321.847 34.643V40.1855H331.847ZM331.847 46.7555H321.847V46.9894L321.858 47.2231L331.847 46.7555ZM332.837 67.9055L334.671 77.7359L343.234 76.1385L342.827 67.4379L332.837 67.9055ZM320.777 70.1555L310.79 69.6623L310.165 82.308L322.611 79.9859L320.777 70.1555ZM321.857 48.2855L331.845 48.7787L331.865 48.3831L331.853 47.9871L321.857 48.2855ZM319.877 26.6855L317.777 16.9087L308.416 18.9201L310.019 28.3597L319.877 26.6855ZM330.767 24.3455L340.695 23.1473L339.382 12.2662L328.667 14.5687L330.767 24.3455ZM331.667 34.5155L321.682 35.0602L323.179 62.5001L339.667 40.5155L331.667 34.5155ZM334.727 31.0055L341.799 38.0766L341.889 37.9859L341.977 37.893L334.727 31.0055ZM340.127 27.0455L345.179 35.6757L345.257 35.6303L345.334 35.5835L340.127 27.0455ZM354.797 28.0355L347.22 34.5607L347.265 34.6136L347.312 34.6659L354.797 28.0355ZM357.587 36.6755L367.573 37.2105L367.587 36.9432V36.6755H357.587ZM357.047 46.7555L347.062 46.2206L347.035 46.7169L347.058 47.2134L357.047 46.7555ZM358.037 68.3555L359.858 78.1883L368.426 76.6018L368.027 67.8977L358.037 68.3555ZM345.887 70.6055L335.898 70.1409L335.313 82.7339L347.708 80.4383L345.887 70.6055ZM356.967 47.3855C356.967 45.0697 356.869 42.8781 356.613 40.9171C356.382 39.141 355.926 36.7268 354.753 34.4799L337.022 43.7312C336.878 43.4559 336.792 43.2415 336.747 43.1182C336.724 43.0538 336.708 43.0047 336.698 42.9735C336.689 42.9421 336.684 42.9249 336.684 42.9235C336.684 42.9228 336.696 42.9695 336.715 43.072C336.734 43.1736 336.757 43.3159 336.781 43.5039C336.886 44.303 336.967 45.5613 336.967 47.3855H356.967ZM354.753 34.4798C351.338 27.9335 344.493 27.0355 340.847 27.0355V47.0355C341.406 47.0355 341.07 47.1242 340.288 46.8032C339.33 46.4097 337.93 45.4719 337.022 43.7312L354.753 34.4798ZM340.847 27.0355C335.617 27.0355 330.755 29.076 326.547 31.7055L337.147 48.6655C338.346 47.9162 339.266 47.4907 339.921 47.2616C340.569 47.0347 340.855 47.0355 340.847 47.0355V27.0355ZM321.847 40.1855V46.7555H341.847V40.1855H321.847ZM321.858 47.2231L322.848 68.3731L342.827 67.4379L341.837 46.2879L321.858 47.2231ZM331.003 58.0751L318.943 60.3251L322.611 79.9859L334.671 77.7359L331.003 58.0751ZM330.765 70.6487L331.845 48.7787L311.87 47.7923L310.79 69.6623L330.765 70.6487ZM331.853 47.9871C331.602 39.5932 330.91 31.9211 329.736 25.0114L310.019 28.3597C311.005 34.17 311.632 40.8978 311.862 48.5839L331.853 47.9871ZM321.978 36.4624L332.868 34.1224L328.667 14.5687L317.777 16.9087L321.978 36.4624ZM320.84 25.5437C321.235 28.8195 321.515 31.9912 321.682 35.0602L341.653 33.9709C341.46 30.4398 341.14 26.8315 340.695 23.1473L320.84 25.5437ZM339.667 40.5155C340.263 39.721 340.968 38.9066 341.799 38.0766L327.656 23.9344C326.206 25.3844 324.872 26.9101 323.667 28.5155L339.667 40.5155ZM341.977 37.893C342.168 37.6923 343.036 36.9303 345.179 35.6757L335.076 18.4154C332.299 20.0407 329.567 21.9187 327.477 24.118L341.977 37.893ZM345.334 35.5835C346.335 34.9729 347.128 34.7955 347.867 34.7955V14.7955C343.207 14.7955 338.84 16.1182 334.921 18.5075L345.334 35.5835ZM347.867 34.7955C347.902 34.7955 347.863 34.7986 347.77 34.7786C347.673 34.7581 347.556 34.7211 347.435 34.6643C347.314 34.6079 347.229 34.5504 347.183 34.5146C347.139 34.4807 347.155 34.4851 347.22 34.5607L362.375 21.5103C358.687 17.2271 353.646 14.7955 347.867 14.7955V34.7955ZM347.312 34.6659C347.256 34.6035 347.299 34.6118 347.374 34.8434C347.459 35.1081 347.587 35.6779 347.587 36.6755H367.587C367.587 31.3336 366.205 25.8331 362.283 21.4052L347.312 34.6659ZM347.602 36.1406L347.062 46.2206L367.033 47.2905L367.573 37.2105L347.602 36.1406ZM347.058 47.2134L348.048 68.8134L368.027 67.8977L367.037 46.2977L347.058 47.2134ZM356.217 58.5227L344.067 60.7727L347.708 80.4383L359.858 78.1883L356.217 58.5227ZM355.877 71.0701L356.957 47.8501L336.978 46.9209L335.898 70.1409L355.877 71.0701ZM366.447 80.3255L360.542 88.3958L366.585 92.8174L372.528 88.2636L366.447 80.3255ZM362.757 77.6255L355.156 71.1267L348.146 79.3256L356.852 85.6958L362.757 77.6255ZM365.727 59.8055L362.029 50.5142L351.575 54.6747L356.934 64.5684L365.727 59.8055ZM374.547 56.2955L382.391 50.0932L377.771 44.2498L370.849 47.0042L374.547 56.2955ZM367.607 64.1255C367.607 64.2847 367.287 67.0843 360.365 72.3874L372.528 88.2636C380.487 82.1668 387.607 74.1664 387.607 64.1255H367.607ZM372.352 72.2552L368.662 69.5552L356.852 85.6958L360.542 88.3958L372.352 72.2552ZM370.357 84.1244C374.321 79.4881 378.067 73.5919 378.067 66.9155H358.067C358.067 66.4542 358.195 66.5631 357.78 67.401C357.367 68.2332 356.572 69.4717 355.156 71.1267L370.357 84.1244ZM378.067 66.9155C378.067 62.5657 376.353 58.4265 374.52 55.0427L356.934 64.5684C357.513 65.6369 357.826 66.3931 357.983 66.8692C358.147 67.367 358.067 67.3402 358.067 66.9155H378.067ZM369.424 69.0968L378.244 65.5868L370.849 47.0042L362.029 50.5142L369.424 69.0968ZM366.703 62.4979C367.212 63.1425 367.434 63.589 367.528 63.828C367.574 63.9459 367.592 64.0212 367.599 64.0583C367.606 64.0943 367.607 64.1139 367.607 64.1255H387.607C387.607 58.727 385.476 53.995 382.391 50.0932L366.703 62.4979ZM437.131 40.8155V30.8155H425.398L427.257 42.4002L437.131 40.8155ZM438.031 54.5855L428.225 52.6244L427.164 57.9287L431.023 61.7194L438.031 54.5855ZM448.201 64.5755L454.85 72.0446L462.836 64.9347L455.208 57.4416L448.201 64.5755ZM440.821 71.1455L433.457 77.9118L440.118 85.1598L447.47 78.6146L440.821 71.1455ZM433.621 63.4955L440.84 56.5765L433.158 48.5604L425.987 57.0361L433.621 63.4955ZM426.421 69.0755L422.025 60.0934L426.421 69.0755ZM404.011 66.7355L397.609 74.4177L397.647 74.4495L397.685 74.4808L404.011 66.7355ZM409.231 40.1855L414.278 48.818L425.254 42.4001L416.431 33.2458L409.231 40.1855ZM407.431 16.1555L413.756 23.9008L413.794 23.8695L413.832 23.8377L407.431 16.1555ZM429.121 12.6455L426.695 22.3469L426.721 22.3533L426.746 22.3595L429.121 12.6455ZM434.881 14.5355L440.095 6.0027L439.822 5.83559L439.538 5.68633L434.881 14.5355ZM436.501 15.5255L445.353 20.1768L449.712 11.8799L441.715 6.99269L436.501 15.5255ZM430.921 26.1455L424.461 33.7794L433.976 41.8302L439.773 30.7968L430.921 26.1455ZM425.071 22.6355L420.79 31.6729L420.931 31.7399L421.075 31.8025L425.071 22.6355ZM413.641 22.4555L407.394 14.6468L407.295 14.7254L407.199 14.8064L413.641 22.4555ZM414.091 31.9055L406.387 38.2812V38.2812L414.091 31.9055ZM424.441 41.7155L431.241 34.3838L431.143 34.2931L431.043 34.2051L424.441 41.7155ZM430.651 47.4755L423.85 54.8072L443.12 72.681L440.605 46.5184L430.651 47.4755ZM428.311 33.7955L421.24 26.7244L417.411 30.5525L418.524 35.8507L428.311 33.7955ZM429.481 32.6255V22.6255H425.338L422.41 25.5544L429.481 32.6255ZM448.381 32.6255L458.342 33.5013L459.298 22.6255H448.381V32.6255ZM447.661 40.8155V50.8155H456.82L457.622 41.6913L447.661 40.8155ZM413.281 44.1455L420.2 36.9256L413.284 30.2979L406.365 36.9224L413.281 44.1455ZM411.931 59.2655L404.973 66.4479L405.028 66.5014L405.084 66.554L411.931 59.2655ZM428.581 58.3655L436.464 64.5182L441.863 57.6007L435.705 51.3486L428.581 58.3655ZM417.601 47.8355L424.269 40.3831L423.946 40.0949L423.601 39.8355L417.601 47.8355ZM427.257 42.4002C428.053 47.3588 428.301 49.8938 428.301 50.7155H448.301C448.301 48.0573 447.768 43.9923 447.004 39.2309L427.257 42.4002ZM428.301 50.7155C428.301 51.3877 428.282 51.8901 428.257 52.247C428.231 52.6241 428.205 52.7222 428.225 52.6244L447.836 56.5467C448.211 54.6754 448.301 52.6079 448.301 50.7155H428.301ZM431.023 61.7194L441.193 71.7094L455.208 57.4416L445.038 47.4516L431.023 61.7194ZM441.551 57.1065L434.171 63.6765L447.47 78.6146L454.85 72.0446L441.551 57.1065ZM448.184 64.3793C446.084 62.0945 443.634 59.4919 440.84 56.5765L426.401 70.4146C429.127 73.2591 431.477 75.7565 433.457 77.9118L448.184 64.3793ZM425.987 57.0361C424.922 58.2943 423.634 59.3062 422.025 60.0934L430.816 78.0577C434.848 76.0849 438.359 73.3767 441.254 69.9549L425.987 57.0361ZM422.025 60.0934C420.537 60.8216 419.097 61.1455 417.601 61.1455V81.1455C422.225 81.1455 426.664 80.0894 430.816 78.0577L422.025 60.0934ZM417.601 61.1455C414.024 61.1455 411.849 60.226 410.336 58.9902L397.685 74.4808C403.372 79.125 410.257 81.1455 417.601 81.1455V61.1455ZM410.412 59.0533C408.984 57.8629 408.611 56.8794 408.611 55.4855H388.611C388.611 63.0916 391.837 69.6082 397.609 74.4177L410.412 59.0533ZM408.611 55.4855C408.611 54.1989 409.041 51.8804 414.278 48.818L404.183 31.553C395.26 36.7706 388.611 44.6522 388.611 55.4855H408.611ZM416.431 33.2458C412.227 28.8842 412.031 26.7911 412.031 26.6855H392.031C392.031 34.62 396.634 41.5268 402.031 47.1253L416.431 33.2458ZM412.031 26.6855C412.031 26.0486 412.117 25.2391 413.756 23.9008L401.105 8.4102C395.544 12.952 392.031 19.1624 392.031 26.6855H412.031ZM413.832 23.8377C415.472 22.4714 417.498 21.6555 420.481 21.6555V1.65551C413.263 1.65551 406.589 3.83964 401.029 8.4733L413.832 23.8377ZM420.481 21.6555C422.9 21.6555 424.954 21.9117 426.695 22.3469L431.546 2.94409C428.007 2.05934 424.301 1.65551 420.481 1.65551V21.6555ZM426.746 22.3595C427.931 22.6492 428.824 22.9034 429.468 23.1146C430.16 23.3415 430.343 23.4477 430.223 23.3847L439.538 5.68633C437.238 4.47574 434.293 3.61549 431.495 2.93152L426.746 22.3595ZM429.666 23.0683L431.286 24.0583L441.715 6.99269L440.095 6.0027L429.666 23.0683ZM427.648 10.8742L422.068 21.4942L439.773 30.7968L445.353 20.1768L427.648 10.8742ZM437.38 18.5117C434.92 16.43 432.086 14.7848 429.066 13.4686L421.075 31.8025C422.735 32.5262 423.801 33.221 424.461 33.7794L437.38 18.5117ZM429.351 13.5981C425.999 12.0101 422.349 11.0155 418.501 11.0155V31.0155C418.852 31.0155 419.582 31.1009 420.79 31.6729L429.351 13.5981ZM418.501 11.0155C414.935 11.0155 410.872 11.8638 407.394 14.6468L419.888 30.2642C419.382 30.6688 418.902 30.8728 418.596 30.9635C418.317 31.0464 418.25 31.0155 418.501 31.0155V11.0155ZM407.199 14.8064C403.786 17.6806 401.931 21.7178 401.931 26.1455H421.931C421.931 26.6918 421.819 27.4655 421.431 28.3026C421.042 29.1415 420.518 29.7373 420.082 30.1046L407.199 14.8064ZM401.931 26.1455C401.931 30.7555 403.583 34.8936 406.387 38.2812L421.795 25.5298C421.711 25.4294 421.766 25.4688 421.834 25.6493C421.866 25.7339 421.892 25.8277 421.909 25.9238C421.926 26.0194 421.931 26.0962 421.931 26.1455H401.931ZM406.387 38.2812C408.425 40.7445 412.51 44.5422 417.838 49.2259L431.043 34.2051C425.451 29.2889 422.636 26.5465 421.795 25.5298L406.387 38.2812ZM417.64 49.0472L423.85 54.8072L437.451 40.1438L431.241 34.3838L417.64 49.0472ZM440.605 46.5184C440.25 42.8291 439.376 37.8299 438.097 31.7403L418.524 35.8507C419.765 41.7611 420.451 45.8819 420.697 48.4326L440.605 46.5184ZM435.382 40.8666L436.552 39.6966L422.41 25.5544L421.24 26.7244L435.382 40.8666ZM429.481 42.6255H448.381V22.6255H429.481V42.6255ZM438.419 31.7498L437.699 39.9398L457.622 41.6913L458.342 33.5013L438.419 31.7498ZM447.661 30.8155H437.131V50.8155H447.661V30.8155ZM406.365 36.9224C402.406 40.7128 399.051 45.8788 399.051 52.3355H419.051C419.051 52.7262 418.937 52.9163 418.993 52.8069C419.076 52.647 419.378 52.152 420.196 51.3686L406.365 36.9224ZM399.051 52.3355C399.051 57.704 401.038 62.6366 404.973 66.4479L418.889 52.0831C418.854 52.0501 418.866 52.0555 418.899 52.1033C418.933 52.1525 418.972 52.2208 419.005 52.3004C419.038 52.3795 419.052 52.438 419.056 52.4607C419.06 52.4812 419.051 52.4443 419.051 52.3355H399.051ZM405.084 66.554C409.456 70.6609 415.005 72.0555 420.301 72.0555V52.0555C419.343 52.0555 418.847 51.93 418.67 51.8712C418.533 51.8254 418.628 51.8365 418.777 51.977L405.084 66.554ZM420.301 72.0555C426.446 72.0555 432.342 69.7987 436.464 64.5182L420.697 52.2128C420.688 52.2252 420.717 52.1856 420.792 52.1272C420.867 52.0678 420.943 52.0243 421 51.999C421.122 51.9445 420.962 52.0555 420.301 52.0555V72.0555ZM435.705 51.3486C431.687 47.2687 427.874 43.609 424.269 40.3831L410.933 55.2879C414.167 58.1821 417.674 61.5423 421.456 65.3824L435.705 51.3486ZM423.601 39.8355C422.515 39.021 421.38 38.0567 420.2 36.9256L406.362 51.3654C408.061 52.9943 409.807 54.49 411.601 55.8355L423.601 39.8355ZM483.034 66.6455L485.95 76.2108L509.563 69.0118L487.597 57.7473L483.034 66.6455ZM483.034 57.1955L488.966 65.2461L493.034 62.2486V57.1955H483.034ZM483.034 56.4755H493.034V46.4755H483.034V56.4755ZM472.684 52.8755L465.788 60.1169L465.83 60.1574L465.873 60.1974L472.684 52.8755ZM475.294 29.6555L481.99 37.0833L482.018 37.0574L482.047 37.0314L475.294 29.6555ZM496.984 24.7055L494.945 34.4953L494.945 34.4953L496.984 24.7055ZM512.374 25.6055L522.309 26.7474L523.589 15.6055H512.374V25.6055ZM511.474 33.4355L510.283 43.3643L520.261 44.5617L521.409 34.5774L511.474 33.4355ZM504.724 32.6255L505.916 22.6967L490.067 20.7949L495.27 35.8854L504.724 32.6255ZM504.004 45.2255L495.012 40.8509L494.986 40.903L494.962 40.9555L504.004 45.2255ZM500.224 50.4455L493.618 42.9384L493.542 43.0054L493.467 43.074L500.224 50.4455ZM495.814 53.9555L501.361 62.276L501.399 62.2506L501.437 62.2248L495.814 53.9555ZM492.034 56.5655L497.801 64.7352L497.845 64.704L497.889 64.6723L492.034 56.5655ZM494.104 61.5155L497.863 52.2489L497.637 52.1574L497.408 52.0769L494.104 61.5155ZM506.974 68.0855L500.676 75.8531L500.727 75.894L500.778 75.9343L506.974 68.0855ZM503.644 85.6355L498.334 77.1619L498.268 77.2034L498.202 77.2459L503.644 85.6355ZM473.314 86.9855L468.237 95.6009L468.27 95.6205L468.304 95.6398L473.314 86.9855ZM493.474 34.7855L486.248 41.6977V41.6977L493.474 34.7855ZM496.984 73.0355L503.425 65.3864L503.305 65.2846L503.181 65.1867L496.984 73.0355ZM490.864 69.7955L494.803 60.6041L491.592 59.2277L488.222 60.1509L490.864 69.7955ZM481.774 73.1255L476.584 64.5776L476.515 64.6199L476.446 64.6632L481.774 73.1255ZM481.774 80.5055L486.736 71.8231L486.683 71.7932L486.631 71.7639L481.774 80.5055ZM495.904 80.3255L490.883 71.6776L495.904 80.3255ZM478.274 79.0655C478.274 79.3684 478.187 79.7068 478.06 79.9488C477.959 80.1425 477.966 80.0195 478.403 79.652C479.395 78.8167 481.637 77.5259 485.95 76.2108L480.118 57.0802C474.591 58.7652 469.453 61.0444 465.526 64.349C461.347 67.8654 458.274 72.8358 458.274 79.0655H478.274ZM487.597 57.7473C487.33 57.6105 487.816 57.7943 488.402 58.5755C489.093 59.4973 489.524 60.7256 489.524 61.9655H469.524C469.524 69.0037 474.215 73.3612 478.471 75.5437L487.597 57.7473ZM489.524 61.9655C489.524 63.9127 488.738 65.2188 488.35 65.7226L472.498 53.5284C470.91 55.5922 469.524 58.4584 469.524 61.9655H489.524ZM488.35 65.7226C488.253 65.8488 488.229 65.8556 488.341 65.752C488.449 65.6511 488.648 65.4807 488.966 65.2461L477.102 49.145C475.509 50.3189 473.857 51.7609 472.498 53.5284L488.35 65.7226ZM493.034 57.1955V56.4755H473.034V57.1955H493.034ZM483.034 46.4755C480.641 46.4755 479.828 45.8629 479.495 45.5536L465.873 60.1974C470.701 64.6881 476.787 66.4755 483.034 66.4755V46.4755ZM479.581 45.6341C479.355 45.419 478.904 44.9923 478.904 43.2455H458.904C458.904 49.5388 460.973 55.532 465.788 60.1169L479.581 45.6341ZM478.904 43.2455C478.904 41.1558 479.601 39.2362 481.99 37.0833L468.599 22.2278C462.467 27.7548 458.904 34.8952 458.904 43.2455H478.904ZM482.047 37.0314C484.447 34.8337 487.072 33.8055 490.414 33.8055V13.8055C482.116 13.8055 474.661 16.6774 468.542 22.2797L482.047 37.0314ZM490.414 33.8055C490.853 33.8055 492.225 33.9288 494.945 34.4953L499.024 14.9157C495.983 14.2822 492.975 13.8055 490.414 13.8055V33.8055ZM494.945 34.4953C498.452 35.226 501.956 35.6055 505.444 35.6055V15.6055C503.413 15.6055 501.277 15.3851 499.024 14.9157L494.945 34.4953ZM505.444 35.6055H512.374V15.6055H505.444V35.6055ZM502.44 24.4636L501.54 32.2936L521.409 34.5774L522.309 26.7474L502.44 24.4636ZM512.666 23.5067L505.916 22.6967L503.533 42.5543L510.283 43.3643L512.666 23.5067ZM495.27 35.8854C495.443 36.3858 495.624 37.2334 495.624 38.5655H515.624C515.624 35.4577 515.205 32.3452 514.178 29.3656L495.27 35.8854ZM495.624 38.5655C495.624 39.107 495.504 39.8395 495.012 40.8509L512.996 49.6002C514.664 46.1715 515.624 42.464 515.624 38.5655H495.624ZM494.962 40.9555C494.412 42.1183 493.914 42.6782 493.618 42.9384L506.83 57.9527C509.535 55.5729 511.556 52.6527 513.047 49.4956L494.962 40.9555ZM493.467 43.074C492.356 44.0925 491.263 44.9575 490.191 45.6863L501.437 62.2248C503.366 60.9135 505.212 59.4386 506.981 57.8171L493.467 43.074ZM490.267 45.635C488.752 46.6451 487.385 47.5878 486.179 48.4587L497.889 64.6723C498.843 63.9833 499.996 63.1859 501.361 62.276L490.267 45.635ZM486.267 48.3958C485.305 49.0747 484.06 50.0808 482.974 51.486C481.884 52.8964 480.504 55.3127 480.504 58.5455H500.504C500.504 61.1783 499.379 62.9647 498.799 63.715C498.489 64.1172 498.216 64.3816 498.062 64.52C497.904 64.6624 497.805 64.7321 497.801 64.7352L486.267 48.3958ZM480.504 58.5455C480.504 63.0869 483.025 66.1945 485.04 67.8568C486.945 69.4283 489.102 70.3594 490.801 70.9541L497.408 52.0769C496.707 51.8316 497.063 51.8478 497.768 52.4293C498.583 53.1015 500.504 55.1441 500.504 58.5455H480.504ZM490.345 70.7821C496.713 73.3652 499.733 75.0887 500.676 75.8531L513.272 60.318C509.775 57.4823 504.216 54.8259 497.863 52.2489L490.345 70.7821ZM500.778 75.9343C500.976 76.0913 500.827 76.0252 500.643 75.6686C500.556 75.4991 500.488 75.3132 500.445 75.128C500.402 74.9451 500.394 74.8102 500.394 74.7455H520.394C520.394 68.7103 517.577 63.7155 513.171 60.2367L500.778 75.9343ZM500.394 74.7455C500.394 75.1814 500.311 75.3614 500.207 75.5296C500.058 75.7696 499.598 76.3698 498.334 77.1619L508.954 94.1091C515.706 89.8778 520.394 83.3478 520.394 74.7455H500.394ZM498.202 77.2459C495.639 78.9083 492.293 79.9555 487.714 79.9555V99.9555C495.495 99.9555 502.769 98.1227 509.086 94.0251L498.202 77.2459ZM487.714 79.9555C482.39 79.9555 479.595 79.0667 478.324 78.3313L468.304 95.6398C473.874 98.8644 480.678 99.9555 487.714 99.9555V79.9555ZM478.391 78.3701C477.743 77.9885 477.78 77.8515 477.971 78.1518C478.065 78.3004 478.153 78.4894 478.212 78.6952C478.269 78.8973 478.274 79.0338 478.274 79.0655H458.274C458.274 86.6064 462.482 92.2095 468.237 95.6009L478.391 78.3701ZM505.454 41.2655C505.454 37.1 504.555 31.9026 500.701 27.8733L486.248 41.6977C485.647 41.0699 485.439 40.5055 485.396 40.3627C485.376 40.2999 485.393 40.3333 485.413 40.4902C485.433 40.6469 485.454 40.9001 485.454 41.2655H505.454ZM500.701 27.8733C496.751 23.7447 491.511 22.7155 487.264 22.7155V42.7155C487.897 42.7155 488.002 42.7975 487.769 42.7198C487.482 42.6242 486.864 42.3421 486.248 41.6977L500.701 27.8733ZM487.264 22.7155C483.02 22.7155 477.995 23.7679 474.09 27.6305C470.164 31.5132 469.074 36.546 469.074 40.8155H489.074C489.074 40.2786 489.145 40.2188 489.062 40.4656C488.962 40.762 488.7 41.3096 488.154 41.8505C486.978 43.0131 486.048 42.7155 487.264 42.7155V22.7155ZM469.074 40.8155C469.074 45.2589 470.325 50.3641 474.496 54.1914C478.504 57.8692 483.556 58.8255 487.804 58.8255V38.8255C487.082 38.8255 486.834 38.7391 486.909 38.7621C487.023 38.7968 487.487 38.9679 488.017 39.4546C488.566 39.9584 488.878 40.5179 489.019 40.9053C489.139 41.2361 489.074 41.2688 489.074 40.8155H469.074ZM487.804 58.8255C491.866 58.8255 496.755 57.8191 500.571 54.0483C504.408 50.2559 505.454 45.3571 505.454 41.2655H485.454C485.454 42.2139 485.225 41.0951 486.513 39.8227C487.778 38.5719 488.842 38.8255 487.804 38.8255V58.8255ZM508.694 76.0955C508.694 71.0633 505.922 67.4889 503.425 65.3864L490.543 80.6846C490.432 80.5914 489.979 80.1887 489.537 79.3987C489.059 78.5435 488.694 77.4018 488.694 76.0955H508.694ZM503.181 65.1867C500.924 63.4056 497.822 61.8979 494.803 60.6041L486.925 78.987C488.232 79.547 489.214 80.0144 489.92 80.3884C490.678 80.7897 490.885 80.9614 490.788 80.8843L503.181 65.1867ZM488.222 60.1509C483.807 61.3605 479.569 62.7653 476.584 64.5776L486.964 81.6734C486.951 81.6809 487.079 81.6038 487.408 81.4552C487.726 81.3111 488.165 81.1306 488.746 80.9178C489.918 80.4886 491.487 79.9934 493.506 79.4401L488.222 60.1509ZM476.446 64.6632C472.832 66.9386 469.344 71.013 469.344 76.9055H489.344C489.344 78.0702 488.997 79.2577 488.363 80.2431C487.788 81.1375 487.199 81.5271 487.102 81.5878L476.446 64.6632ZM469.344 76.9055C469.344 82.9438 473.004 87.0726 476.918 89.2471L486.631 71.7639C486.822 71.8705 487.553 72.3179 488.24 73.3358C488.992 74.4504 489.344 75.7379 489.344 76.9055H469.344ZM476.813 89.188C480.591 91.347 484.856 91.9455 488.704 91.9455V71.9455C487.758 71.9455 487.147 71.8666 486.801 71.7947C486.457 71.7231 486.49 71.6826 486.736 71.8231L476.813 89.188ZM488.704 91.9455C492.787 91.9455 497.081 91.2058 500.925 88.9734L490.883 71.6776C491.007 71.6052 490.501 71.9455 488.704 71.9455V91.9455ZM500.925 88.9734C505.018 86.5973 508.694 82.2836 508.694 76.0955H488.694C488.694 75.0705 489.002 73.9325 489.649 72.9521C490.235 72.0632 490.831 71.7078 490.883 71.6776L500.925 88.9734ZM516.137 26.6855L514.036 16.9087L504.675 18.9201L506.278 28.3597L516.137 26.6855ZM527.027 24.3455L536.96 23.1846L535.682 12.2575L524.926 14.5687L527.027 24.3455ZM528.107 37.4855L518.117 37.9199L519.481 69.2931L536.509 42.9081L528.107 37.4855ZM543.497 24.7955L553.472 25.4989L554.227 14.7955H543.497V24.7955ZM542.507 38.8355V48.8355H551.827L552.482 39.5389L542.507 38.8355ZM534.227 39.8255L537.127 49.3958L537.217 49.3687L537.305 49.34L534.227 39.8255ZM528.107 43.5155L521.477 36.0296L518.107 39.0142V43.5155H528.107ZM528.107 46.7555H518.107V46.9894L518.118 47.2231L528.107 46.7555ZM529.097 67.9055L530.931 77.7359L539.494 76.1385L539.086 67.4379L529.097 67.9055ZM517.037 70.1555L507.049 69.6623L506.425 82.308L518.871 79.9859L517.037 70.1555ZM518.117 48.2855L528.105 48.7787L528.125 48.3831L528.113 47.9871L518.117 48.2855ZM518.238 36.4624L529.128 34.1224L524.926 14.5687L514.036 16.9087L518.238 36.4624ZM517.095 25.5064C517.61 29.9137 517.948 34.0499 518.117 37.9199L538.098 37.0511C537.906 32.6411 537.524 28.0173 536.96 23.1846L517.095 25.5064ZM536.509 42.9081C538.937 39.1461 540.937 36.899 542.412 35.6834C543.869 34.4814 544.173 34.7955 543.497 34.7955V14.7955C538.022 14.7955 533.36 17.2247 529.688 20.2526C526.032 23.267 522.737 27.365 519.705 32.0629L536.509 42.9081ZM533.522 24.0921L532.532 38.1321L552.482 39.5389L553.472 25.4989L533.522 24.0921ZM542.507 28.8355C538.547 28.8355 534.607 29.1923 531.149 30.3111L537.305 49.34C537.927 49.1388 539.507 48.8355 542.507 48.8355V28.8355ZM531.327 30.2553C527.569 31.394 524.293 33.5356 521.477 36.0296L534.738 51.0014C536.122 49.7754 536.925 49.457 537.127 49.3958L531.327 30.2553ZM518.107 43.5155V46.7555H538.107V43.5155H518.107ZM518.118 47.2231L519.108 68.3731L539.086 67.4379L538.096 46.2879L518.118 47.2231ZM527.263 58.0751L515.203 60.3251L518.871 79.9859L530.931 77.7359L527.263 58.0751ZM527.025 70.6487L528.105 48.7787L508.129 47.7923L507.049 69.6623L527.025 70.6487ZM528.113 47.9871C527.862 39.5932 527.169 31.9211 525.996 25.0114L506.278 28.3597C507.265 34.17 507.892 40.8978 508.122 48.5839L528.113 47.9871ZM552.717 31.8155L544.814 25.6884L552.717 31.8155ZM580.167 29.2055L572.548 35.682L572.579 35.7186L572.61 35.7548L580.167 29.2055ZM578.817 63.3155L570.861 57.2578L570.856 57.2647L570.85 57.2717L578.817 63.3155ZM551.367 65.5655L543.775 72.0734L543.83 72.138L543.887 72.2017L551.367 65.5655ZM559.197 57.3755L567.293 51.5058V51.5058L559.197 57.3755ZM572.517 57.7355L564.231 52.1369L564.214 52.1627L564.197 52.1885L572.517 57.7355ZM556.507 51.3455C556.507 45.5658 558.023 41.2935 560.62 37.9426L544.814 25.6884C539.132 33.0175 536.507 41.7653 536.507 51.3455H556.507ZM560.62 37.9426C563.337 34.438 565.474 33.8055 567.207 33.8055V13.8055C557.901 13.8055 550.377 18.5131 544.814 25.6884L560.62 37.9426ZM567.207 33.8055C570.44 33.8055 571.738 34.7287 572.548 35.682L587.787 22.729C582.477 16.4823 575.134 13.8055 567.207 13.8055V33.8055ZM572.61 35.7548C573.794 37.1205 574.847 39.3666 574.847 43.5155H594.847C594.847 35.7844 592.781 28.4906 587.724 22.6562L572.61 35.7548ZM574.847 43.5155C574.847 49.684 573.313 54.0373 570.861 57.2578L586.774 69.3732C592.362 62.0337 594.847 53.187 594.847 43.5155H574.847ZM570.85 57.2717C568.603 60.2336 566.436 61.1455 563.787 61.1455V81.1455C573.258 81.1455 581.111 76.8374 586.784 69.3594L570.85 57.2717ZM563.787 61.1455C561.662 61.1455 560.247 60.5064 558.848 58.9294L543.887 72.2017C549.088 78.0646 555.952 81.1455 563.787 81.1455V61.1455ZM558.96 59.0576C557.497 57.3506 556.507 55.0256 556.507 51.3455H536.507C536.507 59.0654 538.758 66.2204 543.775 72.0734L558.96 59.0576ZM584.767 48.1955C584.767 43.0193 583.94 37.3711 580.798 32.7693C577.189 27.4826 571.64 25.1455 565.857 25.1455V45.1455C566.12 45.1455 565.865 45.1901 565.368 44.9474C564.825 44.6822 564.454 44.2993 564.281 44.0467C564.153 43.8597 564.295 43.9803 564.46 44.7053C564.625 45.4292 564.767 46.5577 564.767 48.1955H584.767ZM565.857 25.1455C560.364 25.1455 554.768 27.1041 550.933 32.1681C547.495 36.7077 546.587 42.3286 546.587 47.3855H566.587C566.587 45.944 566.727 45.0145 566.862 44.4782C566.995 43.9538 567.079 43.9759 566.877 44.243C566.633 44.565 566.247 44.8798 565.83 45.0632C565.472 45.2208 565.401 45.1455 565.857 45.1455V25.1455ZM546.587 47.3855C546.587 52.8669 547.689 58.5383 551.101 63.2452L567.293 51.5058C567.226 51.4128 566.587 50.4241 566.587 47.3855H546.587ZM551.101 63.2452C554.609 68.0834 559.824 70.9755 566.037 70.9755V50.9755C566.045 50.9755 566.146 50.9768 566.314 51.0163C566.486 51.0568 566.679 51.1258 566.87 51.2263C567.281 51.4427 567.397 51.6493 567.293 51.5058L551.101 63.2452ZM566.037 70.9755C571.83 70.9755 577.316 68.5646 580.838 63.2825L564.197 52.1885C564.367 51.9326 564.752 51.5176 565.345 51.2212C565.897 50.9455 566.221 50.9755 566.037 50.9755V70.9755ZM580.803 63.3341C583.877 58.7855 584.767 53.3207 584.767 48.1955H564.767C564.767 49.6874 564.63 50.7208 564.472 51.39C564.316 52.0513 564.172 52.2247 564.231 52.1369L580.803 63.3341ZM632.765 58.9055L622.988 61.0049L624.685 68.9055H632.765V58.9055ZM633.935 58.9055V68.9055H641.869L643.673 61.1801L633.935 58.9055ZM636.815 46.5755L646.553 48.8501L646.578 48.7431L646.601 48.6356L636.815 46.5755ZM641.495 24.3455L642.716 14.4203L633.602 13.2997L631.71 22.2854L641.495 24.3455ZM652.475 25.6955L662.068 28.5193L665.398 17.209L653.696 15.7703L652.475 25.6955ZM645.905 48.0155L636.312 45.1918L636.268 45.3417L636.229 45.493L645.905 48.0155ZM640.415 69.0755L641.326 79.034L648.32 78.3942L650.092 71.5981L640.415 69.0755ZM625.655 70.4255L615.902 72.6331L617.837 81.1823L626.566 80.3839L625.655 70.4255ZM620.705 48.5555L630.459 46.348L630.37 45.9562L630.25 45.5728L620.705 48.5555ZM620.255 47.1155L629.8 44.1328L619.636 11.6064L610.612 44.4676L620.255 47.1155ZM614.225 69.0755L615.164 79.0313L622.04 78.3827L623.868 71.7234L614.225 69.0755ZM599.915 70.4255L590.188 72.7471L592.205 81.1973L600.854 80.3813L599.915 70.4255ZM594.695 48.5555L604.422 46.2339L604.373 46.0278L604.315 45.824L594.695 48.5555ZM588.485 26.6855L586.611 16.8628L575.882 18.9102L578.866 29.417L588.485 26.6855ZM600.275 24.4355L610.106 22.6034L608.266 12.7301L598.401 14.6128L600.275 24.4355ZM603.965 44.2355L594.135 46.0676L594.165 46.2304L594.201 46.3921L603.965 44.2355ZM607.205 58.9055L597.441 61.0621L599.173 68.9055H607.205V58.9055ZM608.375 58.9055V68.9055H615.803L617.949 61.7944L608.375 58.9055ZM616.115 33.2555L625.689 36.1444L626.54 33.3231L625.726 30.4909L616.115 33.2555ZM614.225 26.6855L612.323 16.8682L601.594 18.9474L604.615 29.4501L614.225 26.6855ZM625.835 24.4355L635.658 22.5603L633.777 12.7103L623.933 14.6182L625.835 24.4355ZM629.615 44.2355L619.793 46.1107L619.814 46.2231L619.838 46.3349L629.615 44.2355ZM632.765 68.9055H633.935V48.9055H632.765V68.9055ZM643.673 61.1801L646.553 48.8501L627.077 44.301L624.197 56.631L643.673 61.1801ZM646.601 48.6356L651.281 26.4056L631.71 22.2854L627.03 44.5154L646.601 48.6356ZM640.275 34.2708L651.255 35.6208L653.696 15.7703L642.716 14.4203L640.275 34.2708ZM642.882 22.8718L636.312 45.1918L655.498 50.8393L662.068 28.5193L642.882 22.8718ZM636.229 45.493L630.739 66.553L650.092 71.5981L655.582 50.5381L636.229 45.493ZM639.504 59.1171L624.744 60.4671L626.566 80.3839L641.326 79.034L639.504 59.1171ZM635.409 68.218L630.459 46.348L610.952 50.7631L615.902 72.6331L635.409 68.218ZM630.25 45.5728L629.8 44.1328L610.71 50.0983L611.16 51.5383L630.25 45.5728ZM610.612 44.4676L604.582 66.4276L623.868 71.7234L629.898 49.7634L610.612 44.4676ZM613.286 59.1197L598.976 60.4697L600.854 80.3813L615.164 79.0313L613.286 59.1197ZM609.642 68.1039L604.422 46.2339L584.969 50.8771L590.188 72.7471L609.642 68.1039ZM604.315 45.824L598.105 23.954L578.866 29.417L585.076 51.287L604.315 45.824ZM590.36 36.5082L602.15 34.2582L598.401 14.6128L586.611 16.8628L590.36 36.5082ZM590.445 26.2676L594.135 46.0676L613.796 42.4034L610.106 22.6034L590.445 26.2676ZM594.201 46.3921L597.441 61.0621L616.97 56.7489L613.73 42.0789L594.201 46.3921ZM607.205 68.9055H608.375V48.9055H607.205V68.9055ZM617.949 61.7944L625.689 36.1444L606.542 30.3666L598.802 56.0166L617.949 61.7944ZM625.726 30.4909L623.836 23.9209L604.615 29.4501L606.505 36.0201L625.726 30.4909ZM616.128 36.5029L627.738 34.2529L623.933 14.6182L612.323 16.8682L616.128 36.5029ZM616.013 26.3107L619.793 46.1107L639.438 42.3603L635.658 22.5603L616.013 26.3107ZM619.838 46.3349L622.988 61.0049L642.542 56.8061L639.392 42.1361L619.838 46.3349ZM658.995 59.0855L666.066 66.1566L666.139 66.0844L666.209 66.0108L658.995 59.0855ZM668.355 58.4555L660.881 65.0992L661.076 65.3188L661.284 65.5266L668.355 58.4555ZM667.815 68.4455L675.175 75.2161L675.241 75.1443L675.305 75.0713L667.815 68.4455ZM658.455 68.9855L651.196 75.863L658.455 68.9855ZM673.665 7.15551L683.586 8.40964L685.269 -4.90177L672.032 -2.71019L673.665 7.15551ZM668.625 47.0255L670.083 56.9187L677.594 55.8118L678.546 48.2796L668.625 47.0255ZM660.075 48.2855H650.075V59.8672L661.533 58.1787L660.075 48.2855ZM660.075 9.40552L658.442 -0.460182L650.075 0.925018V9.40552H660.075ZM666.835 64.3055C666.835 64.4873 666.798 64.8539 666.616 65.294C666.433 65.7345 666.2 66.0235 666.066 66.1566L651.924 52.0145C648.605 55.3335 646.835 59.6185 646.835 64.3055H666.835ZM666.209 66.0108C666.151 66.0711 665.894 66.3142 665.412 66.5294C664.913 66.752 664.417 66.8355 664.035 66.8355V46.8355C659.151 46.8355 654.933 48.8769 651.781 52.1602L666.209 66.0108ZM664.035 66.8355C664.083 66.8355 663.687 66.8449 663.044 66.6038C662.342 66.3407 661.551 65.8523 660.881 65.0992L675.829 51.8119C672.401 47.9546 667.822 46.8355 664.035 46.8355V66.8355ZM661.284 65.5266C659.767 64.0098 659.885 62.547 659.885 63.0455H679.885C679.885 59.4641 678.983 54.9412 675.426 51.3845L661.284 65.5266ZM659.885 63.0455C659.885 62.9139 659.912 62.6541 660.03 62.3462C660.147 62.0414 660.286 61.8641 660.325 61.8198L675.305 75.0713C678.265 71.7252 679.885 67.5822 679.885 63.0455H659.885ZM660.456 61.675C660.56 61.562 660.868 61.2735 661.405 61.0294C661.956 60.7789 662.484 60.6955 662.865 60.6955V80.6955C667.77 80.6955 672.032 78.6318 675.175 75.2161L660.456 61.675ZM662.865 60.6955C662.954 60.6955 663.378 60.7098 663.983 60.9444C664.623 61.1926 665.232 61.5984 665.715 62.1081L651.196 75.863C654.511 79.3627 658.808 80.6955 662.865 80.6955V60.6955ZM665.715 62.1081C666.203 62.6234 666.519 63.1956 666.69 63.6894C666.849 64.1475 666.835 64.3976 666.835 64.3055H646.835C646.835 68.147 647.929 72.4145 651.196 75.863L665.715 62.1081ZM663.744 5.90139L658.704 45.7714L678.546 48.2796L683.586 8.40964L663.744 5.90139ZM667.167 37.1324L658.617 38.3924L661.533 58.1787L670.083 56.9187L667.167 37.1324ZM670.075 48.2855V9.40552H650.075V48.2855H670.075ZM661.709 19.2712L675.299 17.0212L672.032 -2.71019L658.442 -0.460182L661.709 19.2712Z" fill="white" mask="url(#path-1-outside-1_30_33)"/>
</svg>
